<?xml version="1.0" encoding="UTF-8"?>
<!DOCTYPE svg PUBLIC "-//W3C//DTD SVG 1.1//EN" "http://www.w3.org/Graphics/SVG/1.1/DTD/svg11.dtd">
<!-- Creator: CorelDRAW 2020 (64 Bit) -->
<svg xmlns="http://www.w3.org/2000/svg" xml:space="preserve" width="17.2181mm" height="12.3016mm" version="1.1" style="shape-rendering:geometricPrecision; text-rendering:geometricPrecision; image-rendering:optimizeQuality; fill-rule:evenodd; clip-rule:evenodd"
viewBox="0 0 73.48 52.49"
 xmlns:xlink="http://www.w3.org/1999/xlink"
 xmlns:xodm="http://www.corel.com/coreldraw/odm/2003">
 <defs>
  <style type="text/css">
   <![CDATA[
    .fil0 {fill:#6E89C6}
    .fil1 {fill:#6E89C6;fill-rule:nonzero}
   ]]>
  </style>
 </defs>
 <g id="Camada_x0020_1">
  <metadata id="CorelCorpID_0Corel-Layer"/>
  <g id="_1489779684736">
   <g>
    <g>
     <path class="fil0" d="M48.51 15.44c0,-2.75 1.18,-5.65 2.96,-7.58 4.14,-4.49 11.34,-4.76 15.97,-0.16 5.22,5.18 3.71,14.17 -2.88,17.47 -4.33,2.17 -9.65,1.28 -13.02,-2.23 -1.79,-1.86 -3.04,-4.9 -3.04,-7.5zm-2.76 -1.13c0,3.04 -0.05,4.29 1.41,7.19 0.71,1.41 1.63,2.8 2.77,3.88 1.2,1.14 2.4,1.89 3.88,2.61 8.47,4.11 19.68,-2 19.68,-12.7 0,-7.37 -6.26,-13.78 -13.62,-13.78 -3.57,0 -6.45,1 -9.04,3.12 -0.33,0.27 -0.58,0.43 -0.89,0.73 -2.13,2.03 -4.17,5.94 -4.17,8.96z"/>
     <path class="fil0" d="M58.07 7.49l0 1.14c-3.8,0.08 -6.39,5.78 -0.95,7.76 2.05,0.75 3.97,-0.15 5.17,1.64 -0.39,1.7 -3.19,1.62 -4.48,1.08 -1.95,-0.83 1,-1.08 -3.79,-1.08 0,0.76 0.07,1.14 0.33,1.62 0.67,1.26 2.32,2.4 3.73,2.43l0 1.62 2.92 0 0 -1.62c1.43,-0.03 3.11,-1.17 3.72,-2.27 1.32,-2.39 -0.42,-4.5 -2.54,-5.4 -1.67,-0.71 -5.24,-0.13 -5.24,-1.89 0,-0.89 2.24,-1.75 4.22,-0.98 0.64,0.25 0.96,0.4 1.13,1.14 1.58,0 4.08,0.61 2.28,-1.95 -0.64,-0.92 -2.07,-2.07 -3.57,-2.1l0 -1.62c-1.92,0 -2.92,-0.27 -2.92,0.49z"/>
    </g>
    <g>
     <polygon class="fil0" points="54.78,41.47 69.21,41.47 69.21,38.95 54.78,38.95 "/>
     <polygon class="fil0" points="54.78,46.24 69.21,46.24 69.21,43.72 54.78,43.72 "/>
     <polygon class="fil0" points="54.78,51 69.21,51 69.21,48.48 54.78,48.48 "/>
     <path class="fil0" d="M54.78 36.71l14.01 0c0.32,0 0.42,-0.1 0.42,-0.42l0 -2.1 -14.43 0 0 2.52z"/>
     <polygon class="fil0" points="50.01,41.47 52.4,41.47 52.4,38.95 50.01,38.95 "/>
     <polygon class="fil0" points="50.01,46.24 52.4,46.24 52.4,43.72 50.01,43.72 "/>
     <polygon class="fil0" points="50.01,51 52.4,51 52.4,48.48 50.01,48.48 "/>
     <polygon class="fil0" points="50.01,36.71 52.4,36.71 52.4,34.19 50.01,34.19 "/>
    </g>
   </g>
   <g>
    <path class="fil1" d="M4.73 0l33.1 0c1.3,0 2.49,0.53 3.34,1.39l-0 0c0.86,0.86 1.39,2.04 1.39,3.34l0 43.03c0,1.3 -0.53,2.49 -1.39,3.34 -0.86,0.86 -2.04,1.39 -3.34,1.39l-33.1 0c-1.3,0 -2.48,-0.53 -3.34,-1.39l-0.01 -0.01c-0.86,-0.86 -1.39,-2.04 -1.39,-3.34l0 -43.03c0,-1.3 0.53,-2.48 1.39,-3.34l0.01 -0.01c0.86,-0.86 2.04,-1.39 3.34,-1.39zm33.1 2.6l-33.1 0c-0.59,0 -1.12,0.24 -1.51,0.62l-0.01 0.01c-0.38,0.38 -0.62,0.92 -0.62,1.51l0 43.03c0,0.59 0.24,1.12 0.62,1.51l0.01 0.01c0.38,0.38 0.92,0.62 1.51,0.62l33.1 0c0.59,0 1.12,-0.24 1.51,-0.63 0.39,-0.39 0.63,-0.92 0.63,-1.51l0 -43.03c0,-0.59 -0.24,-1.12 -0.62,-1.51l-0.01 0c-0.39,-0.39 -0.92,-0.63 -1.51,-0.63z"/>
    <path class="fil1" d="M7.38 5.47l27.81 0c0.6,0 1.15,0.25 1.54,0.64 0.39,0.39 0.64,0.94 0.64,1.54l0 4.69c0,0.6 -0.24,1.14 -0.64,1.54l-0 0c-0.4,0.4 -0.94,0.64 -1.54,0.64l-27.81 0c-0.6,0 -1.15,-0.24 -1.54,-0.64 -0.39,-0.39 -0.64,-0.94 -0.64,-1.54l0 -4.69c0,-0.6 0.25,-1.14 0.64,-1.54l0 -0c0.39,-0.39 0.94,-0.64 1.54,-0.64zm27.81 1.73l-27.81 0c-0.12,0 -0.24,0.05 -0.32,0.13 -0.08,0.08 -0.13,0.2 -0.13,0.32l0 4.69c0,0.12 0.05,0.24 0.13,0.32 0.08,0.08 0.19,0.13 0.32,0.13l27.81 0c0.13,0 0.24,-0.05 0.32,-0.13l0 -0c0.08,-0.08 0.13,-0.19 0.13,-0.32l0 -4.69c0,-0.12 -0.05,-0.24 -0.13,-0.32 -0.08,-0.08 -0.19,-0.13 -0.32,-0.13z"/>
    <g>
     <path class="fil0" d="M9.61 18.87l1.66 0c0.8,0 1.46,0.66 1.46,1.46l0 2c0,0.8 -0.66,1.46 -1.46,1.46l-1.66 0c-0.8,0 -1.46,-0.66 -1.46,-1.46l0 -2c0,-0.8 0.66,-1.46 1.46,-1.46z"/>
     <path class="fil0" d="M20.19 18.87l1.66 0c0.8,0 1.46,0.66 1.46,1.46l0 2c0,0.8 -0.66,1.46 -1.46,1.46l-1.66 0c-0.8,0 -1.46,-0.66 -1.46,-1.46l0 -2c0,-0.8 0.66,-1.46 1.46,-1.46z"/>
     <path class="fil0" d="M30.78 18.87l1.66 0c0.8,0 1.46,0.66 1.46,1.46l0 2c0,0.8 -0.66,1.46 -1.46,1.46l-1.66 0c-0.8,0 -1.46,-0.66 -1.46,-1.46l0 -2c0,-0.8 0.66,-1.46 1.46,-1.46z"/>
     <path class="fil0" d="M9.61 29.34l1.66 0c0.8,0 1.46,0.66 1.46,1.46l0 2c0,0.8 -0.66,1.46 -1.46,1.46l-1.66 0c-0.8,0 -1.46,-0.66 -1.46,-1.46l0 -2c0,-0.8 0.66,-1.46 1.46,-1.46z"/>
     <path class="fil0" d="M20.19 29.34l1.66 0c0.8,0 1.46,0.66 1.46,1.46l0 2c0,0.8 -0.66,1.46 -1.46,1.46l-1.66 0c-0.8,0 -1.46,-0.66 -1.46,-1.46l0 -2c0,-0.8 0.66,-1.46 1.46,-1.46z"/>
     <path class="fil0" d="M30.78 29.34l1.66 0c0.8,0 1.46,0.66 1.46,1.46l0 2c0,0.8 -0.66,1.46 -1.46,1.46l-1.66 0c-0.8,0 -1.46,-0.66 -1.46,-1.46l0 -2c0,-0.8 0.66,-1.46 1.46,-1.46z"/>
     <path class="fil0" d="M9.61 39.81l1.66 0c0.8,0 1.46,0.66 1.46,1.46l0 2c0,0.8 -0.66,1.46 -1.46,1.46l-1.66 0c-0.8,0 -1.46,-0.66 -1.46,-1.46l0 -2c0,-0.8 0.66,-1.46 1.46,-1.46z"/>
     <path class="fil0" d="M20.19 39.81l1.66 0c0.8,0 1.46,0.66 1.46,1.46l0 2c0,0.8 -0.66,1.46 -1.46,1.46l-1.66 0c-0.8,0 -1.46,-0.66 -1.46,-1.46l0 -2c0,-0.8 0.66,-1.46 1.46,-1.46z"/>
     <path class="fil0" d="M30.78 39.81l1.66 0c0.8,0 1.46,0.66 1.46,1.46l0 2c0,0.8 -0.66,1.46 -1.46,1.46l-1.66 0c-0.8,0 -1.46,-0.66 -1.46,-1.46l0 -2c0,-0.8 0.66,-1.46 1.46,-1.46z"/>
    </g>
   </g>
  </g>
 </g>
</svg>
