<?xml version="1.0" encoding="UTF-8"?>
<!DOCTYPE svg PUBLIC "-//W3C//DTD SVG 1.1//EN" "http://www.w3.org/Graphics/SVG/1.1/DTD/svg11.dtd">
<!-- Creator: CorelDRAW 2020 (64 Bit) -->
<svg xmlns="http://www.w3.org/2000/svg" xml:space="preserve" width="15.5605mm" height="15.659mm" version="1.1" style="shape-rendering:geometricPrecision; text-rendering:geometricPrecision; image-rendering:optimizeQuality; fill-rule:evenodd; clip-rule:evenodd"
viewBox="0 0 60.26 60.64"
 xmlns:xlink="http://www.w3.org/1999/xlink"
 xmlns:xodm="http://www.corel.com/coreldraw/odm/2003">
 <defs>
  <style type="text/css">
   <![CDATA[
    .fil0 {fill:#6E89C6;fill-rule:nonzero}
   ]]>
  </style>
 </defs>
 <g id="Camada_x0020_1">
  <metadata id="CorelCorpID_0Corel-Layer"/>
  <g id="_1489836165408">
   <polygon class="fil0" points="15.38,58 -0,58 -0,6.72 6.38,6.72 6.38,0 37.77,0 37.77,7.8 35.52,7.8 35.52,2.26 8.64,2.26 8.64,8.98 2.26,8.98 2.26,55.74 15.38,55.74 "/>
   <polygon class="fil0" points="11.89,6.77 44.6,6.77 44.6,23.45 42.34,23.45 42.34,9.03 11.89,9.03 "/>
   <path class="fil0" d="M59.13 60.64l-9.35 0 -0 -1.13c-0,-0.37 -0,-0.74 -0.03,-1.13l8.2 0 -0.03 -0.19c-0.04,-0.21 -0.11,-0.44 -0.2,-0.68 -0.09,-0.24 -0.21,-0.5 -0.34,-0.75 -0.13,-0.24 -0.28,-0.48 -0.47,-0.73l0 -0c-0.17,-0.22 -0.36,-0.44 -0.58,-0.64 -0.23,-0.21 -0.49,-0.4 -0.77,-0.58 -0.31,-0.2 -0.66,-0.4 -1.02,-0.59 -0.58,-0.31 -1.2,-0.62 -1.78,-0.92l-0.59 -0.3c-0.39,-0.2 -0.75,-0.39 -1.08,-0.58 -0.35,-0.2 -0.67,-0.42 -0.97,-0.65l-0 0c-0.29,-0.23 -0.54,-0.49 -0.75,-0.74 -0.21,-0.24 -0.36,-0.44 -0.46,-0.58 -0.16,-0.23 -0.25,-0.38 -0.32,-0.61 -0.06,-0.2 -0.07,-0.36 -0.08,-0.63l-0.02 -0.81 -0.01 -0.78c0,-0.45 0.02,-1.14 0.03,-1.5l0 -0.01c0.02,-0.74 0.02,-0.74 0.47,-1.21 0.06,-0.07 0.16,-0.17 0.26,-0.28 0.1,-0.11 0.2,-0.24 0.28,-0.37 0.08,-0.13 0.16,-0.28 0.22,-0.44 0.06,-0.16 0.11,-0.32 0.14,-0.49 0.07,-0.38 0.06,-0.82 0.06,-1.04l-0 -0.02 0 0c-0.01,-0.84 -0.01,-0.84 0.58,-1.25l0.16 -0.12 0 0c0.05,-0.04 0.11,-0.09 0.18,-0.16 0.06,-0.06 0.13,-0.14 0.19,-0.24 0.06,-0.09 0.11,-0.18 0.16,-0.29 0.06,-0.13 0.12,-0.28 0.15,-0.42 0.03,-0.11 0.04,-0.22 0.04,-0.33 0,-0.09 -0.01,-0.17 -0.03,-0.23 -0.02,-0.07 -0.05,-0.13 -0.08,-0.17 -0.07,-0.09 -0.19,-0.19 -0.27,-0.24l-0.03 -0.02 -0 0c-0.37,-0.27 -0.57,-0.45 -0.56,-1.05 0.01,-0.34 0.11,-0.53 0.31,-0.83l0.03 -0.05c0.13,-0.18 0.35,-0.49 0.49,-0.89 0.08,-0.22 0.14,-0.47 0.18,-0.76 0.05,-0.3 0.07,-0.62 0.07,-0.94 0,-0.32 -0.02,-0.62 -0.07,-0.9 -0.04,-0.26 -0.11,-0.51 -0.2,-0.74 -0.09,-0.24 -0.21,-0.46 -0.35,-0.66 -0.14,-0.21 -0.31,-0.42 -0.51,-0.61 -0.19,-0.19 -0.41,-0.36 -0.64,-0.52 -0.23,-0.16 -0.46,-0.28 -0.67,-0.37 -0.4,-0.17 -0.81,-0.24 -1.07,-0.29l-0.1 -0.02c-0.33,-0.06 -0.52,-0.12 -0.76,-0.31 -0.24,-0.19 -0.33,-0.35 -0.46,-0.61 0,-0.01 -0.23,-0.47 -0.26,-0.53 -0.24,0.03 -0.55,0.06 -0.9,0.12 -0.44,0.07 -0.93,0.17 -1.41,0.31 -0.47,0.14 -0.93,0.32 -1.37,0.53 -0.12,0.06 -0.24,0.12 -0.35,0.18 -0.04,-0.11 -0.08,-0.22 -0.12,-0.33 -0.16,-0.41 -0.37,-0.8 -0.61,-1.17 -0.11,-0.16 -0.23,-0.32 -0.35,-0.48 0.15,-0.08 0.3,-0.16 0.46,-0.23 0.54,-0.26 1.12,-0.49 1.71,-0.66 0.58,-0.17 1.16,-0.29 1.68,-0.37 0.5,-0.08 0.94,-0.13 1.24,-0.16 0.44,-0.04 0.69,-0.05 0.97,0.04 0.51,0.17 0.64,0.39 0.84,0.78l0.37 0.74c0.34,0.07 0.83,0.18 1.35,0.4 0.36,0.15 0.73,0.35 1.06,0.58 0.33,0.22 0.65,0.48 0.95,0.77 0.3,0.29 0.57,0.62 0.81,0.97 0.23,0.35 0.43,0.71 0.58,1.1 0.15,0.38 0.26,0.78 0.33,1.18 0.07,0.42 0.11,0.85 0.11,1.28 0,0.42 -0.03,0.86 -0.1,1.27 -0.06,0.41 -0.16,0.81 -0.29,1.17 -0.12,0.34 -0.26,0.63 -0.4,0.86 0.05,0.06 0.09,0.12 0.14,0.18 0.16,0.23 0.3,0.51 0.39,0.81 0.09,0.28 0.14,0.58 0.14,0.88 0,0.28 -0.04,0.57 -0.11,0.86 -0.07,0.3 -0.18,0.59 -0.29,0.84 -0.11,0.23 -0.23,0.44 -0.35,0.62 -0.14,0.21 -0.3,0.39 -0.45,0.55 -0.09,0.09 -0.18,0.18 -0.27,0.25 -0,0.31 -0.02,0.73 -0.1,1.15 -0.06,0.31 -0.14,0.62 -0.25,0.9 -0.11,0.3 -0.26,0.58 -0.42,0.83 -0.16,0.25 -0.32,0.46 -0.48,0.64l-0.2 0.22c-0.01,0.26 -0.01,0.7 -0.01,1.32l0 0.75 0.02 0.8c0.08,0.11 0.18,0.25 0.3,0.39 0.12,0.14 0.28,0.3 0.48,0.46l0 0c0.19,0.15 0.42,0.3 0.68,0.45 0.29,0.17 0.61,0.33 0.97,0.51l0.59 0.3c0.6,0.3 1.25,0.63 1.83,0.94 0.41,0.22 0.81,0.45 1.17,0.68 0.39,0.25 0.75,0.52 1.07,0.81 0.33,0.3 0.62,0.62 0.87,0.97 0.24,0.32 0.45,0.66 0.64,1.02 0.18,0.34 0.34,0.68 0.46,1.02 0.13,0.34 0.23,0.69 0.3,1.03 0.13,0.65 0.13,1.21 0.13,1.76l0 0 0 1.13 -1.13 0zm-18.34 -11.04c0.09,-0.12 0.16,-0.27 0.21,-0.47 0.08,-0.29 0.11,-0.66 0.13,-1.02 0.02,-0.42 0.01,-0.81 0.01,-1.1l-0.01 -0.44c-0.13,-0.11 -0.3,-0.27 -0.49,-0.47 -0.22,-0.23 -0.47,-0.51 -0.69,-0.82 -0.09,-0.13 -0.18,-0.27 -0.26,-0.4l0.01 -0.01c0.16,-0.19 0.34,-0.42 0.51,-0.68 0.17,-0.27 0.32,-0.57 0.44,-0.88 0.12,-0.3 0.21,-0.62 0.27,-0.96 0.05,-0.3 0.08,-0.6 0.09,-0.87 0.15,0.16 0.17,0.36 0.17,0.81l-0 0 -0 0.05c-0,0.09 -0,0.25 0.06,0.5 0.05,0.17 0.12,0.37 0.22,0.57 0.09,0.19 0.2,0.38 0.33,0.55 0.14,0.19 0.31,0.39 0.48,0.56 0.16,0.16 0.33,0.31 0.45,0.42l-0 0 0.09 0.08c0.45,0.39 0.5,0.44 0.57,0.92l0 0.01c0.01,0.08 0.02,0.18 0.02,0.37l0.01 0.66c0.01,0.33 0.01,0.77 -0.01,1.22 -0.02,0.51 -0.08,1.04 -0.2,1.5 -0.1,0.36 -0.23,0.67 -0.4,0.96l-0.64 -0.32c-0.39,-0.2 -0.74,-0.38 -1.05,-0.56 -0.11,-0.06 -0.21,-0.12 -0.3,-0.18zm9.94 -0.43c-0,0 -0,0 0,0.02 0.01,0.04 0,0.01 -0,-0.02z"/>
   <path class="fil0" d="M48.65 60.64l-30.31 0 0.15 -1.26c0.07,-0.56 0.13,-1.12 0.24,-1.74 0.11,-0.62 0.26,-1.22 0.49,-1.77 0.23,-0.58 0.55,-1.12 0.96,-1.62 0.39,-0.48 0.87,-0.93 1.44,-1.37 0.49,-0.38 1.06,-0.75 1.65,-1.09 0.7,-0.4 1.43,-0.78 2.1,-1.1 0.45,-0.21 0.82,-0.38 1.17,-0.54 0.66,-0.3 1.23,-0.56 1.66,-0.81 0.27,-0.16 0.47,-0.32 0.61,-0.48 0.12,-0.15 0.22,-0.33 0.28,-0.58 0.08,-0.32 0.13,-0.73 0.14,-1.13 0.02,-0.45 0.01,-0.88 0.01,-1.19l-0.01 -0.53c-0.17,-0.15 -0.38,-0.35 -0.56,-0.53l0 -0c-0.24,-0.25 -0.5,-0.54 -0.74,-0.87 -0.23,-0.31 -0.42,-0.64 -0.57,-0.95 -0.18,-0.37 -0.31,-0.72 -0.39,-1.02 -0.07,-0.27 -0.11,-0.51 -0.13,-0.71l-0.2 -0.14c-0.21,-0.15 -0.43,-0.34 -0.64,-0.57 -0.22,-0.24 -0.39,-0.5 -0.52,-0.77 -0.12,-0.26 -0.21,-0.54 -0.27,-0.83l0 -0c-0.06,-0.29 -0.09,-0.6 -0.08,-0.91 0.01,-0.31 0.05,-0.61 0.14,-0.9 0.09,-0.3 0.23,-0.56 0.37,-0.78l-0 -0 0.08 -0.12c-0.11,-0.26 -0.23,-0.61 -0.35,-1.06l-0 0c-0.1,-0.38 -0.18,-0.82 -0.23,-1.35 -0.04,-0.43 -0.06,-0.91 -0.05,-1.44 0.02,-0.61 0.08,-1.28 0.21,-1.93 0.11,-0.58 0.28,-1.16 0.52,-1.7 0.26,-0.6 0.6,-1.13 1.01,-1.61 0.4,-0.46 0.86,-0.88 1.38,-1.25 0.51,-0.36 1.06,-0.69 1.65,-0.98l0 0c0.59,-0.28 1.21,-0.52 1.84,-0.71 0.62,-0.18 1.25,-0.31 1.81,-0.4 0.54,-0.09 1.02,-0.14 1.34,-0.17 0.46,-0.04 0.72,-0.05 1.01,0.04l0 0c0.52,0.17 0.65,0.39 0.86,0.79l0.42 0.84c0.37,0.07 0.91,0.19 1.5,0.44 0.39,0.16 0.77,0.37 1.13,0.62 0.35,0.24 0.7,0.52 1.01,0.83 0.32,0.31 0.61,0.66 0.86,1.03 0.25,0.37 0.46,0.76 0.61,1.17 0.16,0.41 0.27,0.83 0.35,1.27 0.08,0.45 0.11,0.91 0.11,1.37 0,0.45 -0.03,0.92 -0.1,1.37 -0.07,0.44 -0.17,0.87 -0.3,1.25 -0.14,0.39 -0.3,0.71 -0.46,0.98 0.06,0.07 0.13,0.15 0.19,0.24 0.17,0.24 0.31,0.53 0.41,0.85 0.09,0.3 0.14,0.61 0.14,0.93 0,0.29 -0.04,0.6 -0.12,0.91 -0.08,0.32 -0.19,0.63 -0.31,0.89 -0.12,0.25 -0.25,0.48 -0.4,0.69 -0.15,0.21 -0.3,0.39 -0.45,0.54 -0.12,0.12 -0.22,0.22 -0.32,0.3 -0,0.34 -0.02,0.8 -0.1,1.27 -0.06,0.33 -0.15,0.66 -0.27,0.96 -0.12,0.32 -0.27,0.61 -0.44,0.88 -0.17,0.26 -0.35,0.49 -0.51,0.68 -0.09,0.1 -0.17,0.19 -0.24,0.27 -0.01,0.29 -0.02,0.78 -0.02,1.46l0 0.82c0.01,0.32 0.01,0.62 0.02,0.83l0 0c0,0.06 -0.01,0.06 -0.01,0.07l0 -0c-0,-0.01 0,-0.01 0.01,-0.01l0 0c0.07,0.1 0.19,0.26 0.35,0.44 0.14,0.16 0.31,0.34 0.53,0.51l0 0c0.21,0.17 0.46,0.33 0.75,0.5 0.31,0.18 0.67,0.36 1.05,0.56l0.66 0.33c0.65,0.33 1.34,0.67 1.96,1.01 0.45,0.24 0.87,0.48 1.26,0.74 0.42,0.27 0.81,0.56 1.15,0.87 0.36,0.32 0.67,0.67 0.94,1.03l0 0c0.26,0.35 0.49,0.72 0.69,1.09 0.19,0.36 0.36,0.73 0.5,1.09 0.14,0.36 0.25,0.73 0.32,1.1 0.14,0.7 0.14,1.3 0.14,1.9l0 1.13 -1.13 0zm-27.76 -2.26l26.59 0c-0.01,-0.11 -0.03,-0.21 -0.05,-0.32l0 -0c-0.05,-0.23 -0.12,-0.48 -0.22,-0.75l0 -0c-0.1,-0.27 -0.23,-0.55 -0.37,-0.82 -0.14,-0.27 -0.31,-0.54 -0.51,-0.81 -0.19,-0.25 -0.41,-0.5 -0.65,-0.72 -0.25,-0.23 -0.54,-0.44 -0.85,-0.64 -0.34,-0.22 -0.72,-0.43 -1.11,-0.65 -0.62,-0.34 -1.29,-0.67 -1.91,-0.98l-0.66 -0.33c-0.42,-0.21 -0.81,-0.42 -1.17,-0.62 -0.38,-0.22 -0.72,-0.44 -1.04,-0.7l-0 0c-0.31,-0.25 -0.58,-0.53 -0.81,-0.79 -0.2,-0.23 -0.37,-0.46 -0.49,-0.62 -0.17,-0.24 -0.27,-0.4 -0.34,-0.63l0 -0c-0.06,-0.21 -0.07,-0.38 -0.08,-0.66 -0.01,-0.19 -0.02,-0.5 -0.02,-0.88l-0.01 -0.85c0,-0.51 0.02,-1.27 0.03,-1.64 0.02,-0.76 0.02,-0.76 0.49,-1.24 0.07,-0.07 0.18,-0.18 0.29,-0.31 0.1,-0.12 0.22,-0.27 0.31,-0.42 0.1,-0.15 0.18,-0.32 0.25,-0.5 0.07,-0.18 0.12,-0.36 0.15,-0.54 0.08,-0.42 0.07,-0.91 0.07,-1.15 -0.01,-0.87 -0.01,-0.88 0.59,-1.29l0.18 -0.13c0.07,-0.05 0.14,-0.12 0.21,-0.18 0.07,-0.07 0.14,-0.16 0.21,-0.25 0.07,-0.09 0.13,-0.21 0.2,-0.35 0.07,-0.15 0.13,-0.32 0.17,-0.48 0.03,-0.12 0.05,-0.25 0.05,-0.38 0,-0.11 -0.01,-0.2 -0.04,-0.27 -0.03,-0.08 -0.06,-0.16 -0.1,-0.21 -0.08,-0.11 -0.23,-0.22 -0.32,-0.28l-0.03 -0.02c-0.38,-0.28 -0.58,-0.46 -0.57,-1.06 0.01,-0.33 0.11,-0.54 0.32,-0.84l0.04 -0.06c0.14,-0.2 0.38,-0.55 0.54,-0.99 0.08,-0.24 0.15,-0.53 0.2,-0.84 0.05,-0.33 0.08,-0.68 0.08,-1.03 0,-0.35 -0.02,-0.68 -0.08,-0.99 -0.05,-0.29 -0.12,-0.57 -0.22,-0.83 -0.1,-0.26 -0.23,-0.51 -0.38,-0.74 -0.16,-0.24 -0.35,-0.46 -0.56,-0.67 -0.21,-0.21 -0.45,-0.4 -0.7,-0.57 -0.26,-0.17 -0.51,-0.31 -0.74,-0.41 -0.44,-0.19 -0.89,-0.27 -1.17,-0.32 -0.03,0 -0.08,-0.02 -0.11,-0.02 -0.34,-0.07 -0.53,-0.13 -0.78,-0.32l0 -0c-0.25,-0.2 -0.33,-0.35 -0.47,-0.63 -0.03,-0.04 -0.28,-0.55 -0.32,-0.64 -0.27,0.03 -0.63,0.07 -1.05,0.14 -0.48,0.08 -1.01,0.19 -1.54,0.34 -0.52,0.15 -1.03,0.35 -1.5,0.57 -0.48,0.23 -0.92,0.49 -1.31,0.77 -0.37,0.27 -0.7,0.56 -0.98,0.89 -0.27,0.31 -0.49,0.66 -0.66,1.04 -0.16,0.37 -0.28,0.79 -0.37,1.23 -0.11,0.54 -0.16,1.08 -0.17,1.56 -0.01,0.42 0,0.81 0.04,1.15 0.04,0.37 0.1,0.71 0.18,1.01l-0 0c0.11,0.42 0.25,0.76 0.35,0.98 0.02,0.05 0.05,0.12 0.07,0.17 0.33,0.84 0.25,0.94 -0.23,1.54l-0.01 0.01c-0.05,0.06 -0.11,0.14 -0.18,0.25l-0 0c-0.05,0.07 -0.09,0.16 -0.12,0.24l0 0c-0.03,0.09 -0.04,0.18 -0.04,0.27l0 0c-0,0.14 0.01,0.28 0.04,0.41 0.02,0.11 0.06,0.22 0.1,0.32 0.04,0.08 0.09,0.16 0.15,0.22 0.08,0.08 0.19,0.18 0.3,0.26 0.12,0.09 0.24,0.17 0.33,0.22l0.05 0.03c0.66,0.39 0.72,0.43 0.72,1.2l-0 0 -0 0.05c-0,0.1 -0,0.29 0.07,0.56 0.05,0.19 0.13,0.41 0.24,0.64 0.1,0.21 0.22,0.42 0.36,0.62 0.15,0.21 0.35,0.43 0.53,0.61 0.23,0.23 0.39,0.38 0.49,0.47l0 -0 0.1 0.09 -0 0c0.46,0.4 0.51,0.45 0.58,0.94 0.01,0.08 0.02,0.19 0.03,0.4 0,0.24 0.01,0.47 0.01,0.71 0.01,0.35 0.01,0.83 -0.01,1.32 -0.02,0.54 -0.08,1.11 -0.21,1.61 -0.15,0.57 -0.39,1.03 -0.73,1.44 -0.32,0.39 -0.71,0.7 -1.17,0.97 -0.53,0.32 -1.17,0.61 -1.9,0.94 -0.37,0.17 -0.77,0.35 -1.14,0.52 -0.62,0.3 -1.3,0.64 -1.93,1.01 -0.51,0.3 -1,0.61 -1.42,0.93l-0 0c-0.43,0.32 -0.77,0.65 -1.06,1 -0.26,0.32 -0.46,0.67 -0.62,1.05 -0.17,0.41 -0.28,0.86 -0.36,1.32l-0.06 0.34zm18.56 -10.05l0 0 0 -0.01 -0 0zm0 0l0 0.01c0.01,0.03 0.01,0.01 0,-0.01l-0.01 0z"/>
   <g>
    <polygon class="fil0" points="7.77,13.31 12.95,13.31 12.95,15.57 7.77,15.57 "/>
    <polygon class="fil0" points="7.77,19.91 12.95,19.91 12.95,22.17 7.77,22.17 "/>
    <polygon class="fil0" points="7.77,26.51 12.95,26.51 12.95,28.77 7.77,28.77 "/>
    <polygon class="fil0" points="7.77,33.11 12.95,33.11 12.95,35.37 7.77,35.37 "/>
    <polygon class="fil0" points="7.77,39.71 12.95,39.71 12.95,41.97 7.77,41.97 "/>
    <polygon class="fil0" points="7.77,46.31 12.95,46.31 12.95,48.57 7.77,48.57 "/>
    <polygon class="fil0" points="19.8,46.31 24.98,46.31 24.98,48.57 19.8,48.57 "/>
    <g>
     <path class="fil0" d="M19.8 39.71l3.88 0c0.2,0.76 0.57,1.45 1.1,2.05 0.06,0.07 0.13,0.14 0.2,0.2l0 0.01 -5.18 0 0 -2.26z"/>
     <path class="fil0" d="M19.8 33.11l3.64 0c0.02,0.76 0.1,1.52 0.26,2.26l-3.9 0 0 -2.26z"/>
     <path class="fil0" d="M19.8 26.51l5.18 0 0 0.44c-0.25,0.38 -0.48,0.79 -0.67,1.22 -0.08,0.19 -0.16,0.39 -0.23,0.59l-4.28 0 0 -2.26z"/>
    </g>
    <polygon class="fil0" points="19.8,19.91 24.98,19.91 24.98,22.17 19.8,22.17 "/>
    <polygon class="fil0" points="19.8,13.31 24.98,13.31 24.98,15.57 19.8,15.57 "/>
    <polygon class="fil0" points="31.83,13.31 37.01,13.31 37.01,15.57 31.83,15.57 "/>
    <polygon class="fil0" points="31.83,19.91 37.01,19.91 37.01,22.17 31.83,22.17 "/>
   </g>
  </g>
 </g>
</svg>
