<?xml version="1.0" encoding="UTF-8"?>
<!DOCTYPE svg PUBLIC "-//W3C//DTD SVG 1.1//EN" "http://www.w3.org/Graphics/SVG/1.1/DTD/svg11.dtd">
<!-- Creator: CorelDRAW 2020 (64 Bit) -->
<svg xmlns="http://www.w3.org/2000/svg" xml:space="preserve" width="12.7477mm" height="13.6861mm" version="1.1" style="shape-rendering:geometricPrecision; text-rendering:geometricPrecision; image-rendering:optimizeQuality; fill-rule:evenodd; clip-rule:evenodd"
viewBox="0 0 42.71 45.86"
 xmlns:xlink="http://www.w3.org/1999/xlink"
 xmlns:xodm="http://www.corel.com/coreldraw/odm/2003">
 <defs>
  <style type="text/css">
   <![CDATA[
    .fil0 {fill:#6287A3}
   ]]>
  </style>
 </defs>
 <g id="Camada_x0020_1">
  <metadata id="CorelCorpID_0Corel-Layer"/>
  <g id="_1489790485616">
   <path class="fil0" d="M1.76 35.13l11.7 0c0,2.24 -0.49,3.84 -0.49,5.85 -1.9,0.44 -8.83,0.44 -10.73,0 0,-1.88 -0.49,-3.69 -0.49,-5.85zm5.85 -3.66c0.61,0 1.58,1.4 1.95,1.95l-3.9 0c0.33,-0.5 0.48,-0.57 0.89,-1.06 0.47,-0.56 0.35,-0.89 1.06,-0.89zm32.18 -6.34l0 -10.48c0.78,0.02 1.22,-0.08 1.22,0.73l0 9.02c0,0.81 -0.44,0.71 -1.22,0.73zm-4.63 -9.75c0,-0.56 0.17,-0.73 0.73,-0.73l2.19 0 0 8.29 -2.93 0 0 -7.56zm-1.71 0l0 7.56 -1.46 0 0 -3.66c0,-3.09 -3.16,-5.61 -6.34,-5.61l-12.19 0c-4.21,0 -5.24,3.28 -7.76,7.12 -1.82,2.77 -1.26,5.53 -1.26,9.71 0,1.24 1.12,0.17 0.42,1.36 -0.48,0.81 -0.85,0.45 -1.15,1.57 -1.58,0 -2.37,-0.05 -3.66,0.24 -0.14,0.59 -0.07,7.25 1.25,8.5 1.34,1.26 7.27,0.77 9.96,0.77 3.15,0 3.26,-1.4 3.53,-3.3 0.23,-1.69 0.63,-4.85 0.37,-5.96 -1.28,-0.3 -2.08,-0.24 -3.66,-0.24 -0.34,-1.27 -0.88,-0.68 -1.22,-1.95 0.64,-0.15 0.72,-0.22 1.22,-0.49 0,-2.73 -0.42,-4.06 0.55,-5.79 0.42,-0.76 0.28,-0.81 0.91,-1.28l0 8.29 1.46 0 0 -12.19c-1.53,-0.36 -1.16,-0.23 -2.69,2.43 -2.31,4.01 -1.94,2.62 -1.94,7.33l-3.66 0c0,-7.29 -0.64,-5.54 2.63,-10.78 1.03,-1.64 1.91,-3.61 4.44,-3.61l12.68 0c5.76,0 4.1,6.74 4.63,9.02 2.19,0.51 5.23,0.24 7.56,0.24l0 2.68 -8.29 0c-3.61,0 -3.17,-5.49 -3.17,-7.56l-1.46 0 0 24.38 -4.63 0 0 -13.65 -1.46 0 0 13.65 -6.09 0c0,1.19 -0.17,1.71 0.73,1.71l12.19 0c1.15,0 0.73,-1.89 0.73,-3.9l0 -14.38c0.98,0.66 1.71,1.46 3.41,1.46l8.78 0c1.09,0 0.98,-1.39 0.98,-2.19 1.74,0 2.93,-0.77 2.93,-2.44l0 -9.02c0,-3.13 -3.84,-2.44 -6.83,-2.44 -1.37,0 -2.44,1.07 -2.44,2.44z"/>
   <path class="fil0" d="M15.41 6.61l0 -1.22c0,-4.8 8.78,-4.8 8.78,0 0,1.65 0.08,2.85 -1.28,4.08 -2.87,2.61 -7.5,0.75 -7.5,-2.86zm-1.71 -0.98c0,8.96 12.19,8.93 12.19,0 0,-4.34 -6.12,-7.83 -10.31,-3.97 -0.82,0.76 -1.88,2.47 -1.88,3.97z"/>
   <polygon class="fil0" points="3.71,39.76 5.41,39.76 5.41,36.59 3.71,36.59 "/>
   <polygon class="fil0" points="9.8,39.76 11.51,39.76 11.51,36.59 9.8,36.59 "/>
   <polygon class="fil0" points="6.88,39.76 8.34,39.76 8.34,36.59 6.88,36.59 "/>
  </g>
 </g>
</svg>
