<?xml version="1.0" encoding="UTF-8"?>
<!DOCTYPE svg PUBLIC "-//W3C//DTD SVG 1.1//EN" "http://www.w3.org/Graphics/SVG/1.1/DTD/svg11.dtd">
<!-- Creator: CorelDRAW 2020 (64 Bit) -->
<svg xmlns="http://www.w3.org/2000/svg" xml:space="preserve" width="14.6048mm" height="14.4213mm" version="1.1" style="shape-rendering:geometricPrecision; text-rendering:geometricPrecision; image-rendering:optimizeQuality; fill-rule:evenodd; clip-rule:evenodd"
viewBox="0 0 55.79 55.09"
 xmlns:xlink="http://www.w3.org/1999/xlink"
 xmlns:xodm="http://www.corel.com/coreldraw/odm/2003">
 <defs>
  <style type="text/css">
   <![CDATA[
    .fil0 {fill:#6287A3}
   ]]>
  </style>
 </defs>
 <g id="Camada_x0020_1">
  <metadata id="CorelCorpID_0Corel-Layer"/>
  <path class="fil0" d="M44.28 12.04c-0.68,0.97 -1.32,1.89 -1.52,2.29 0.27,0.18 0.71,0.39 1.11,0.57 0.24,0.11 0.47,0.22 0.63,0.31 0.4,0.22 0.77,0.45 1.14,0.68l0.57 0.35c0.15,-0.08 0.38,-0.25 0.6,-0.43 0.34,-0.27 0.67,-0.57 0.77,-0.7l0.07 -0.08 1.12 0.46 -0.07 0.14c-0.15,0.3 -0.39,0.59 -0.63,0.88 -0.27,0.32 -0.54,0.64 -0.63,0.94 -0.09,0.28 -0.15,0.37 -0.2,0.44 -0.06,0.07 -0.1,0.13 -0.18,0.67l-0.26 1.59 -1.14 -0.45 -0.08 -1.9c-0.32,-0.13 -0.71,-0.24 -1.09,-0.34 -0.29,-0.08 -0.57,-0.16 -0.82,-0.24 -0.27,-0.09 -0.57,-0.21 -0.86,-0.33 -0.35,-0.14 -0.7,-0.28 -1.01,-0.37 -0.23,0.46 -0.46,1.62 -0.7,2.8 -0.24,1.22 -0.5,2.46 -0.76,3.06l-0.06 0.12 -1.27 -0.48 0.35 -6.63c-0.49,-0.22 -1.89,-0.94 -2.94,-1.61 -0.7,-0.45 -1.26,-0.89 -1.35,-1.18 -0.1,-0.35 -0.08,-0.44 0.04,-0.47 0.03,-0.01 0.06,-0.01 0.08,-0 0.35,-0.27 1.3,-0.11 2.28,0.16 0.98,0.27 2,0.66 2.41,0.82 0.5,0.19 0.6,0.07 0.8,-0.16 0.06,-0.07 0.12,-0.14 0.2,-0.23l3.91 -4.12 0.08 0.02c0.34,0.09 0.64,0.22 0.92,0.35l0.39 0.18 -0.07 0.14c-0.32,0.61 -1.09,1.72 -1.83,2.77zm-8.89 21.37l3.86 -8.57 1.53 0.69c-1.31,2.89 -2.62,5.8 -3.92,8.7l-1.53 -0.69 0.06 -0.13zm-1.18 9.95l7.89 -17.52 1.53 0.69c-2.67,5.88 -5.31,11.77 -7.95,17.66l-1.53 -0.69 0.06 -0.13zm1.73 -43l17.42 7.84c0.51,0.23 0.95,0.55 1.31,0.93 0.37,0.4 0.66,0.87 0.86,1.37 0.19,0.5 0.28,1.05 0.27,1.59 -0.02,0.53 -0.13,1.06 -0.36,1.57l-17.55 38.98c-0.23,0.51 -0.55,0.95 -0.94,1.31 -0.4,0.38 -0.87,0.66 -1.37,0.86 -0.48,0.18 -0.99,0.27 -1.51,0.27 -0.49,-0 -0.99,-0.1 -1.47,-0.29 -0.1,0 -10.34,-4.65 -11.39,-5.12l-18.11 0c-0.42,0 -0.82,-0.08 -1.18,-0.24 -0.38,-0.16 -0.72,-0.39 -1.01,-0.67l-0 -0c-0.29,-0.29 -0.52,-0.63 -0.67,-1.01 -0.15,-0.36 -0.24,-0.76 -0.24,-1.18l0 -34.37c0,-0.42 0.08,-0.82 0.24,-1.18 0.16,-0.37 0.38,-0.71 0.67,-1l0.01 -0.01c0.28,-0.28 0.63,-0.52 1.01,-0.67 0.36,-0.15 0.76,-0.24 1.18,-0.24l24.36 0 3.01 -6.68c0.23,-0.51 0.55,-0.95 0.93,-1.31 0.4,-0.37 0.87,-0.66 1.37,-0.86 0.5,-0.19 1.05,-0.28 1.59,-0.27 0.53,0.02 1.06,0.13 1.57,0.36zm-10.65 49.32l7.82 3.52c0.3,0.14 0.62,0.21 0.93,0.21 0.33,0.01 0.65,-0.05 0.95,-0.16 0.3,-0.11 0.58,-0.29 0.81,-0.51 0.23,-0.21 0.42,-0.47 0.55,-0.78l17.55 -38.99c0.14,-0.3 0.21,-0.62 0.21,-0.93 0.01,-0.33 -0.05,-0.65 -0.16,-0.95 -0.11,-0.3 -0.29,-0.58 -0.51,-0.82 -0.21,-0.23 -0.48,-0.42 -0.78,-0.55l-17.42 -7.84c-0.3,-0.14 -0.62,-0.21 -0.93,-0.21 -0.33,-0.01 -0.65,0.05 -0.95,0.16 -0.3,0.11 -0.58,0.29 -0.82,0.51 -0.23,0.21 -0.42,0.48 -0.55,0.78l-2.7 6 0.56 0c0.42,0 0.82,0.08 1.18,0.24 0.38,0.16 0.72,0.39 1.01,0.67l0 0c0.28,0.28 0.52,0.63 0.67,1.01 0.15,0.36 0.24,0.76 0.24,1.18l0 34.37c0,0.42 -0.08,0.82 -0.24,1.18 -0.16,0.38 -0.39,0.72 -0.67,1.01l-0 0c-0.29,0.29 -0.63,0.52 -1.01,0.67 -0.36,0.15 -0.76,0.24 -1.18,0.24l-4.58 0zm-18.1 -6.24c-0.23,0 -0.44,-0.09 -0.59,-0.25 -0.15,-0.15 -0.25,-0.36 -0.25,-0.59 0,-0.23 0.09,-0.44 0.25,-0.59 0.15,-0.15 0.36,-0.25 0.59,-0.25l18.59 0c0.23,0 0.44,0.09 0.59,0.25 0.15,0.15 0.25,0.36 0.25,0.59 0,0.23 -0.09,0.44 -0.25,0.59 -0.15,0.15 -0.36,0.25 -0.59,0.25l-18.59 0zm0.35 -22.1l4.39 0c0.1,-0.66 0.23,-1.29 0.38,-1.88 0.16,-0.64 0.34,-1.23 0.54,-1.77 0.14,-0.37 0.29,-0.71 0.44,-1.03 0.1,-0.19 0.2,-0.38 0.3,-0.55 -0.72,0.22 -1.4,0.52 -2.04,0.88 -0.76,0.44 -1.45,0.97 -2.06,1.58 -0.43,0.43 -0.81,0.89 -1.16,1.39 -0.3,0.43 -0.56,0.89 -0.79,1.37zm11.84 -5.23c0.1,0.18 0.2,0.36 0.3,0.55 0.16,0.32 0.31,0.66 0.44,1.03 0.2,0.54 0.39,1.13 0.54,1.77 0.15,0.59 0.27,1.22 0.38,1.88l4.39 0c-0.23,-0.48 -0.49,-0.94 -0.79,-1.37 -0.34,-0.5 -0.73,-0.96 -1.16,-1.39 -0.61,-0.61 -1.31,-1.15 -2.06,-1.58 -0.64,-0.37 -1.32,-0.67 -2.04,-0.88zm6.67 6.91l-4.8 0c0.04,0.39 0.06,0.79 0.08,1.19 0.02,0.45 0.03,0.91 0.03,1.37 0,0.45 -0.01,0.9 -0.03,1.34 -0.02,0.39 -0.04,0.77 -0.08,1.16l4.81 0c0.1,-0.39 0.18,-0.78 0.23,-1.18 0.06,-0.43 0.09,-0.87 0.09,-1.31 0,-0.46 -0.03,-0.91 -0.09,-1.35 -0.06,-0.41 -0.14,-0.82 -0.24,-1.21zm-0.59 6.73l-4.41 0c-0.1,0.67 -0.23,1.31 -0.38,1.92 -0.16,0.65 -0.34,1.25 -0.55,1.8 -0.14,0.36 -0.28,0.71 -0.44,1.02 -0.1,0.19 -0.2,0.38 -0.3,0.55 0.72,-0.22 1.4,-0.52 2.04,-0.88 0.76,-0.44 1.45,-0.97 2.06,-1.58 0.43,-0.43 0.83,-0.91 1.18,-1.42 0.3,-0.44 0.57,-0.91 0.8,-1.41zm-11.87 5.29c-0.1,-0.17 -0.2,-0.36 -0.3,-0.55 -0.16,-0.32 -0.31,-0.66 -0.44,-1.03 -0.21,-0.55 -0.39,-1.15 -0.55,-1.8 -0.15,-0.6 -0.28,-1.24 -0.38,-1.91l-4.41 0c0.23,0.49 0.5,0.96 0.8,1.41 0.35,0.51 0.74,0.98 1.18,1.42 0.61,0.61 1.31,1.15 2.06,1.58 0.64,0.37 1.32,0.67 2.04,0.88zm-6.68 -6.97l4.81 0c-0.03,-0.38 -0.06,-0.77 -0.08,-1.16 -0.02,-0.44 -0.03,-0.89 -0.03,-1.34 0,-0.46 0.01,-0.92 0.03,-1.37 0.02,-0.4 0.05,-0.8 0.08,-1.19l-4.8 0c-0.1,0.39 -0.19,0.8 -0.24,1.21 -0.06,0.44 -0.09,0.89 -0.09,1.35 0,0.45 0.03,0.89 0.09,1.31 0.05,0.4 0.13,0.79 0.23,1.18zm1.39 5.69c-1.07,-1.07 -1.93,-2.34 -2.51,-3.76 -0.57,-1.36 -0.88,-2.86 -0.88,-4.42 0,-1.57 0.31,-3.06 0.88,-4.42 0.59,-1.42 1.45,-2.69 2.51,-3.76 1.07,-1.07 2.34,-1.93 3.76,-2.51 1.36,-0.57 2.86,-0.88 4.42,-0.88 1.57,0 3.06,0.31 4.42,0.88 1.42,0.59 2.69,1.45 3.76,2.51 1.07,1.07 1.93,2.34 2.51,3.76 0.57,1.36 0.88,2.86 0.88,4.42 0,1.57 -0.31,3.06 -0.88,4.42 -0.59,1.42 -1.45,2.69 -2.51,3.76 -1.07,1.07 -2.34,1.93 -3.76,2.51 -1.36,0.57 -2.86,0.88 -4.43,0.88 -1.57,0 -3.06,-0.31 -4.42,-0.88 -1.42,-0.59 -2.69,-1.45 -3.76,-2.51zm5.32 -12.41l5.72 0c-0.09,-0.54 -0.2,-1.06 -0.32,-1.56 -0.14,-0.54 -0.29,-1.05 -0.47,-1.51 -0.31,-0.83 -0.67,-1.5 -1.04,-1.96 -0.34,-0.41 -0.69,-0.64 -1.03,-0.64 -0.34,0 -0.69,0.23 -1.03,0.64 -0.37,0.45 -0.72,1.12 -1.04,1.96 -0.17,0.46 -0.33,0.96 -0.47,1.51 -0.12,0.49 -0.23,1.01 -0.32,1.55zm5.94 1.68l-6.16 0c-0.04,0.39 -0.06,0.79 -0.08,1.19 -0.02,0.44 -0.03,0.9 -0.03,1.36 0,0.45 0.01,0.9 0.03,1.33 0.02,0.4 0.05,0.79 0.08,1.16l6.17 0c0.03,-0.38 0.06,-0.77 0.08,-1.17 0.02,-0.43 0.03,-0.87 0.03,-1.33 0,-0.46 -0.01,-0.92 -0.03,-1.36 -0.02,-0.41 -0.05,-0.81 -0.08,-1.19zm-5.95 6.73c0.09,0.56 0.2,1.09 0.33,1.59 0.14,0.55 0.3,1.07 0.47,1.53 0.31,0.83 0.67,1.5 1.04,1.96 0.34,0.41 0.69,0.64 1.03,0.64 0.34,0 0.69,-0.23 1.03,-0.64 0.37,-0.45 0.72,-1.12 1.04,-1.96 0.18,-0.47 0.34,-0.98 0.47,-1.53 0.13,-0.5 0.24,-1.03 0.33,-1.59l-5.74 0zm16.25 -18.95l-26.77 0c-0.19,0 -0.38,0.04 -0.54,0.11 -0.17,0.07 -0.33,0.18 -0.46,0.31 -0.13,0.13 -0.24,0.29 -0.31,0.46 -0.07,0.17 -0.11,0.35 -0.11,0.54l0 34.37c0,0.19 0.04,0.38 0.11,0.54 0.07,0.17 0.18,0.33 0.31,0.46l0 0c0.13,0.13 0.29,0.24 0.46,0.31 0.17,0.07 0.35,0.11 0.54,0.11l26.77 0c0.19,0 0.38,-0.04 0.54,-0.11 0.17,-0.07 0.33,-0.18 0.46,-0.31 0.13,-0.13 0.24,-0.29 0.31,-0.46 0.07,-0.17 0.11,-0.35 0.11,-0.54l0 -34.37c0,-0.19 -0.04,-0.38 -0.11,-0.54 -0.07,-0.17 -0.18,-0.33 -0.31,-0.46 -0.13,-0.13 -0.29,-0.24 -0.46,-0.31 -0.17,-0.07 -0.35,-0.11 -0.54,-0.11z"/>
 </g>
</svg>
