<?xml version="1.0" encoding="UTF-8"?>
<!DOCTYPE svg PUBLIC "-//W3C//DTD SVG 1.1//EN" "http://www.w3.org/Graphics/SVG/1.1/DTD/svg11.dtd">
<!-- Creator: CorelDRAW 2020 (64 Bit) -->
<svg xmlns="http://www.w3.org/2000/svg" xml:space="preserve" width="14.4246mm" height="14.4246mm" version="1.1" style="shape-rendering:geometricPrecision; text-rendering:geometricPrecision; image-rendering:optimizeQuality; fill-rule:evenodd; clip-rule:evenodd"
viewBox="0 0 54.45 54.45"
 xmlns:xlink="http://www.w3.org/1999/xlink"
 xmlns:xodm="http://www.corel.com/coreldraw/odm/2003">
 <defs>
  <style type="text/css">
   <![CDATA[
    .fil0 {fill:#6287A3}
   ]]>
  </style>
 </defs>
 <g id="Camada_x0020_1">
  <metadata id="CorelCorpID_0Corel-Layer"/>
  <path class="fil0" d="M18.5 23.4l10.1 0 0 14.89 -10.1 0 0 -14.89zm13.06 9.75c2.01,-2.39 4.48,-3.82 7.54,-4.39 0.38,-0.18 0.88,-0.25 1.3,-0.26l0 -8.51 -2.19 -1.53c-0.36,-0.27 -14.4,-10.67 -14.62,-10.7 -0.2,-0.02 -3.83,2.71 -4.28,3.05 -1.42,1.07 -2.82,2.06 -4.22,3.12l-7.35 5.41c-0.2,0.15 -0.34,0.25 -0.55,0.41 -0.24,0.18 -0.39,0.17 -0.39,0.46l0 18.08 9.57 0 0 -15.1c0,-1.14 1.2,-1.91 1.81,-1.91l10.64 0c1.04,0 1.86,0.87 2,1.72l0.02 10.93c0.14,-0.1 0.39,-0.5 0.73,-0.78zm8.29 -2.22c-2.91,0.44 -5.37,2.01 -6.99,4.21 -1.62,2.19 -2.4,5 -1.96,7.91l0 0c0.44,2.91 2.01,5.37 4.21,6.99 2.19,1.62 5,2.4 7.91,1.96l0 0c2.91,-0.44 5.37,-2.01 6.99,-4.21 1.62,-2.19 2.4,-5 1.96,-7.91l-0 -0c-0.44,-2.91 -2.01,-5.37 -4.21,-6.99 -2.19,-1.62 -5,-2.4 -7.91,-1.96l-0 0zm0.55 5.76c-1.2,0.63 -2.04,2.33 -1.21,3.87 0.34,0.63 0.85,1.04 1.34,1.53 0.31,0.31 1.36,1.18 1.36,1.62 0,0.64 -0.54,0.64 -0.85,0.64 -0.47,0 -0.14,-0.43 -1.17,-0.43 -0.68,0 -0.96,0.52 -0.96,1.17 0,0.86 0.89,1.1 1.49,1.38 0,1.13 0.32,1.38 1.17,1.38 0.89,0 0.96,-0.71 0.96,-1.6 1.34,-0.89 1.49,-1.47 1.49,-2.87 0,-1.79 -2.98,-3.26 -2.98,-4.15 0,-0.64 0.54,-0.64 0.85,-0.64 0.47,0 0.14,0.43 1.17,0.43 0.68,0 0.96,-0.52 0.96,-1.17 0,-0.86 -0.89,-1.1 -1.49,-1.38 0,-1.13 -0.32,-1.38 -1.17,-1.38 -0.89,0 -0.96,0.71 -0.96,1.6zm-14.89 -5.96c0,1.71 2.13,1.42 2.13,0.11 0,-1.45 -2.13,-1.37 -2.13,-0.11zm-10.42 -24.79l-7.09 5.21c-0.66,0.41 -1.41,1.03 -1.74,1.28l-5.88 4.33c-0.25,0.22 -0.37,0.45 -0.4,0.7l0 0.21c0.07,0.72 0.86,1.55 1.55,2.46 1.2,1.6 1.46,2.59 3.02,1.55l-0 17.23c0,0.82 0.3,1.48 1.07,1.48l22.87 0c0,2.58 0.04,4.26 1.24,6.63 1.45,2.87 3.29,4.72 6.17,6.17 1.43,0.72 2.98,1.13 4.55,1.24l1.8 0c3.09,-0.22 6.12,-1.54 8.39,-3.8 2.07,-2.07 3.8,-5.3 3.8,-8.53 0,-2.38 -0.16,-4.05 -1.2,-6.13 -1.38,-2.75 -3.22,-4.74 -5.99,-6.13 -1.11,-0.56 -3.16,-1.31 -4.72,-1.35l0 -6.81c1.17,0.62 1.41,0.72 2.29,-0.47 3.43,-4.6 3.36,-3.33 -1.76,-7.19l-13.29 -9.78c-0.49,-0.37 -5.54,-4.25 -6.06,-4.25 -0.77,0 -1.72,0.86 -2.55,1.49l-5.64 4.15 -0.01 0.01 -0.01 0c-0.13,0.1 -0.28,0.19 -0.4,0.3zm-8.73 9.15l0 0 2.42 -1.78c0.18,-0.12 0.37,-0.26 0.55,-0.41l9.36 -6.88 4.91 -3.58 10.42 7.66c0.43,0.32 0.84,0.61 1.29,0.94l7.84 5.77c0.34,0.26 1.01,0.84 1.4,0.94 -0.17,0.63 -0.92,1.18 -1.06,1.7 -0.56,-0.05 -2.08,-1.37 -2.55,-1.7 -2.96,-2.08 -6.73,-4.96 -9.8,-7.21 -0.83,-0.61 -1.62,-1.19 -2.44,-1.81l-2.45 -1.8c-3.17,-2.16 -1.56,-2.86 -7.68,1.74l-13.48 9.92c-0.23,0.17 -0.4,0.28 -0.62,0.44 -0.25,0.18 -0.38,0.34 -0.75,0.42l-1.06 -1.6 3.71 -2.77z"/>
 </g>
</svg>
