<?xml version="1.0" encoding="UTF-8"?>
<!DOCTYPE svg PUBLIC "-//W3C//DTD SVG 1.1//EN" "http://www.w3.org/Graphics/SVG/1.1/DTD/svg11.dtd">
<!-- Creator: CorelDRAW 2020 (64 Bit) -->
<svg xmlns="http://www.w3.org/2000/svg" xml:space="preserve" width="5.8434mm" height="4.1435mm" version="1.1" style="shape-rendering:geometricPrecision; text-rendering:geometricPrecision; image-rendering:optimizeQuality; fill-rule:evenodd; clip-rule:evenodd"
viewBox="0 0 114.14 80.93"
 xmlns:xlink="http://www.w3.org/1999/xlink"
 xmlns:xodm="http://www.corel.com/coreldraw/odm/2003">
 <defs>
  <style type="text/css">
   <![CDATA[
    .fil0 {fill:white}
   ]]>
  </style>
 </defs>
 <g id="Camada_x0020_1">
  <metadata id="CorelCorpID_0Corel-Layer"/>
  <path class="fil0" d="M0.15 10.32c0.1,8.41 -0.59,59.72 0.36,63.24 1.03,3.81 4.14,7.06 8.58,7.27 5.07,0.24 10.73,0.01 15.87,0.01 21.26,0 42.52,0 63.77,0 5.22,0 10.69,0.16 15.88,0 4.75,-0.14 7.7,-3.06 8.87,-6.98 1.11,-3.7 0.45,-25.68 0.45,-31.28 0,-6.79 0.32,-26.45 -0.06,-31.69l-28.42 16.57c-4.76,2.77 -9.5,5.43 -14.16,8.24l-14.28 8.24c-3.48,-1.74 -10.41,-6.17 -14.34,-8.49 -8.92,-5.26 -19.93,-12.14 -28.47,-16.95 -2.34,-1.31 -12.51,-7.71 -14.05,-8.19zm2.06 -6.31c1.45,1.21 4.97,3.09 6.78,4.15 2.39,1.4 4.46,2.62 6.84,4.06l41.18 24.49c2.14,-0.91 4.89,-2.77 6.97,-3.96l48.32 -28.21c-0.63,-1.6 -2.02,-2.68 -3.49,-3.49 -2.05,-1.12 -3.84,-1.05 -6.37,-1.05l-89.28 0c-4.09,0 -8.93,-0.15 -10.93,4z"/>
 </g>
</svg>
