<?xml version="1.0" encoding="UTF-8"?>
<!DOCTYPE svg PUBLIC "-//W3C//DTD SVG 1.1//EN" "http://www.w3.org/Graphics/SVG/1.1/DTD/svg11.dtd">
<!-- Creator: CorelDRAW 2020 (64 Bit) -->
<svg xmlns="http://www.w3.org/2000/svg" xml:space="preserve" width="16.673mm" height="12.4367mm" version="1.1" style="shape-rendering:geometricPrecision; text-rendering:geometricPrecision; image-rendering:optimizeQuality; fill-rule:evenodd; clip-rule:evenodd"
viewBox="0 0 68.99 51.46"
 xmlns:xlink="http://www.w3.org/1999/xlink"
 xmlns:xodm="http://www.corel.com/coreldraw/odm/2003">
 <defs>
  <style type="text/css">
   <![CDATA[
    .fil1 {fill:white}
    .fil0 {fill:#6E89C6;fill-rule:nonzero}
   ]]>
  </style>
 </defs>
 <g id="Camada_x0020_1">
  <metadata id="CorelCorpID_0Corel-Layer"/>
  <g id="_1489918559840">
   <path class="fil0" d="M1.48 0.46l8.2 0c0.4,0 0.77,0.17 1.04,0.43l0 0c0.27,0.27 0.43,0.64 0.43,1.04l0 8.21c0,0.4 -0.17,0.77 -0.43,1.04l-0 0c-0.27,0.27 -0.64,0.43 -1.04,0.43l-8.2 0c-0.4,0 -0.77,-0.17 -1.04,-0.43l-0 -0c-0.27,-0.27 -0.43,-0.64 -0.43,-1.04l0 -8.21c0,-0.4 0.17,-0.77 0.43,-1.04l0 -0c0.27,-0.27 0.64,-0.43 1.04,-0.43zm8.18 1.5l-8.16 0 0 8.16 8.16 0 0 -8.16z"/>
   <path class="fil0" d="M3.27 4.94c-0.23,-0.34 -0.14,-0.81 0.2,-1.04 0.34,-0.23 0.81,-0.15 1.04,0.2l2.14 3.15 8.26 -7.07c0.31,-0.27 0.79,-0.23 1.06,0.08 0.27,0.31 0.23,0.79 -0.08,1.06l-8.88 7.59c-0.03,0.02 -0.05,0.04 -0.08,0.06 -0.34,0.23 -0.81,0.15 -1.04,-0.2l-2.61 -3.84z"/>
   <path class="fil0" d="M1.48 19.12l8.2 0c0.4,0 0.77,0.17 1.04,0.43l0 0c0.27,0.27 0.43,0.64 0.43,1.04l0 8.21c0,0.4 -0.17,0.77 -0.43,1.04l-0 0c-0.27,0.27 -0.64,0.43 -1.04,0.43l-8.2 0c-0.4,0 -0.77,-0.17 -1.04,-0.43l-0 -0c-0.27,-0.27 -0.43,-0.64 -0.43,-1.04l0 -8.21c0,-0.4 0.17,-0.77 0.43,-1.04l0 -0c0.27,-0.27 0.64,-0.43 1.04,-0.43zm8.18 1.5l-8.16 0 0 8.16 8.16 0 0 -8.16z"/>
   <path class="fil0" d="M3.27 23.6c-0.23,-0.34 -0.14,-0.81 0.2,-1.04 0.34,-0.23 0.81,-0.15 1.04,0.2l2.14 3.15 8.26 -7.07c0.31,-0.27 0.79,-0.23 1.06,0.08 0.27,0.31 0.23,0.79 -0.08,1.06l-8.88 7.59c-0.03,0.02 -0.05,0.04 -0.08,0.06 -0.34,0.23 -0.81,0.15 -1.04,-0.2l-2.61 -3.84z"/>
   <path class="fil0" d="M1.48 37.78l8.2 0c0.4,0 0.77,0.17 1.04,0.43l0 0c0.27,0.27 0.43,0.64 0.43,1.04l0 8.21c0,0.4 -0.17,0.77 -0.43,1.04l-0 0c-0.27,0.27 -0.64,0.43 -1.04,0.43l-8.2 0c-0.4,0 -0.77,-0.17 -1.04,-0.43l-0 -0c-0.27,-0.27 -0.43,-0.64 -0.43,-1.04l0 -8.21c0,-0.4 0.17,-0.77 0.43,-1.04l0 -0c0.27,-0.27 0.64,-0.43 1.04,-0.43zm8.18 1.5l-8.16 0 0 8.16 8.16 0 0 -8.16z"/>
   <path class="fil0" d="M3.27 42.26c-0.23,-0.34 -0.14,-0.81 0.2,-1.04 0.34,-0.23 0.81,-0.15 1.04,0.2l2.14 3.15 8.26 -7.07c0.31,-0.27 0.79,-0.23 1.06,0.08 0.27,0.31 0.23,0.79 -0.08,1.06l-8.88 7.59c-0.03,0.02 -0.05,0.04 -0.08,0.06 -0.34,0.23 -0.81,0.15 -1.04,-0.2l-2.61 -3.84z"/>
   <path class="fil0" d="M15 11.96c-0.6,0 -1.09,-0.49 -1.09,-1.09 0,-0.6 0.49,-1.09 1.09,-1.09l27.12 0c0.6,0 1.09,0.49 1.09,1.09 0,0.6 -0.49,1.09 -1.09,1.09l-27.12 0z"/>
   <path class="fil1" d="M44.33 34.83c0,2.22 0.9,4.23 2.35,5.68 1.45,1.45 3.46,2.35 5.68,2.35 2.22,0 4.23,-0.9 5.68,-2.35 1.45,-1.45 2.35,-3.46 2.35,-5.68 0,-2.22 -0.9,-4.23 -2.35,-5.68 -1.45,-1.45 -3.46,-2.35 -5.68,-2.35 -2.22,0 -4.23,0.9 -5.68,2.35 -1.45,1.45 -2.35,3.46 -2.35,5.68zm0.17 -8.97l-1.16 -4.65 5.18 -2.24 2.43 4.01c0.46,-0.05 0.94,-0.08 1.41,-0.08 0.26,0 0.52,0.01 0.78,0.03l2.46 -4.11 5.25 2.08 -1.12 4.56c0.37,0.29 0.72,0.61 1.06,0.94 0.18,0.18 0.36,0.37 0.53,0.57l4.65 -1.16 2.24 5.18 -4.01 2.43c0.06,0.46 0.08,0.94 0.08,1.41 0,0.26 -0.01,0.52 -0.03,0.78l4.11 2.46 -2.08 5.25 -4.56 -1.12c-0.29,0.37 -0.61,0.72 -0.94,1.06 -0.18,0.18 -0.37,0.36 -0.57,0.53l1.16 4.65 -5.18 2.24 -2.43 -4.01c-0.46,0.05 -0.94,0.08 -1.41,0.08 -0.26,0 -0.52,-0.01 -0.78,-0.03l-2.46 4.11 -5.25 -2.08 1.12 -4.56c-0.37,-0.29 -0.72,-0.61 -1.06,-0.94 -0.18,-0.18 -0.36,-0.37 -0.53,-0.57l-4.65 1.16 -2.24 -5.18 4.01 -2.43c-0.05,-0.46 -0.08,-0.94 -0.08,-1.41 0,-0.26 0.01,-0.52 0.03,-0.78l-4.11 -2.46 2.08 -5.25 4.56 1.12c0.29,-0.37 0.61,-0.72 0.94,-1.06 0.18,-0.18 0.37,-0.36 0.57,-0.53z"/>
   <path class="fil0" d="M44.95 34.83c0,1.01 0.2,1.97 0.56,2.84 0.37,0.9 0.93,1.72 1.61,2.4 1.34,1.34 3.19,2.17 5.24,2.17 1.01,0 1.97,-0.2 2.84,-0.56 0.9,-0.37 1.72,-0.93 2.4,-1.61l0.03 -0.03c0.67,-0.68 1.21,-1.48 1.58,-2.37 0.36,-0.87 0.56,-1.83 0.56,-2.84 0,-1.01 -0.2,-1.97 -0.56,-2.84 -0.37,-0.9 -0.93,-1.72 -1.61,-2.4 -1.34,-1.34 -3.2,-2.17 -5.24,-2.17 -1.01,0 -1.97,0.2 -2.84,0.56 -0.9,0.37 -1.72,0.93 -2.4,1.61 -1.34,1.34 -2.17,3.19 -2.17,5.24zm-0.58 3.31c-0.42,-1.02 -0.66,-2.14 -0.66,-3.31 0,-2.39 0.97,-4.55 2.53,-6.12 0.79,-0.79 1.75,-1.44 2.81,-1.88 1.02,-0.42 2.14,-0.66 3.31,-0.66 2.39,0 4.55,0.97 6.12,2.53 0.8,0.8 1.44,1.75 1.88,2.81 0.42,1.02 0.66,2.14 0.66,3.31 0,1.17 -0.23,2.29 -0.66,3.31 -0.43,1.04 -1.06,1.99 -1.84,2.78l-0.03 0.04c-0.79,0.79 -1.75,1.44 -2.81,1.88 -1.02,0.42 -2.14,0.66 -3.31,0.66 -2.39,0 -4.55,-0.97 -6.12,-2.53 -0.79,-0.79 -1.44,-1.75 -1.88,-2.81zm-0.56 -12.49l-1.07 -4.29c-0.08,-0.31 0.1,-0.63 0.4,-0.74l5.14 -2.23c0.29,-0.12 0.62,-0.01 0.77,0.25l2.23 3.68 0.36 -0.03c0.26,-0.01 0.5,-0.02 0.73,-0.02l0.44 0.01 2.27 -3.79c0.16,-0.26 0.48,-0.37 0.76,-0.26l5.25 2.08c0.31,0.12 0.46,0.46 0.36,0.77l-1.02 4.13 0.29 0.26c0.19,0.17 0.36,0.33 0.51,0.48l0.31 0.32 4.29 -1.07c0.31,-0.08 0.63,0.1 0.74,0.4l2.23 5.14c0.12,0.29 0.01,0.62 -0.25,0.77l-3.68 2.23 0.02 0.34c0.02,0.26 0.02,0.51 0.02,0.74l-0.01 0.44 3.79 2.27c0.26,0.16 0.37,0.48 0.26,0.76l-2.08 5.25c-0.12,0.31 -0.46,0.46 -0.77,0.36l-4.13 -1.02 -0.22 0.26c-0.17,0.2 -0.34,0.38 -0.51,0.55l-0.32 0.3 1.07 4.29c0.08,0.31 -0.1,0.63 -0.4,0.74l-5.14 2.23c-0.29,0.12 -0.62,0.01 -0.77,-0.25l-2.23 -3.68 -0.36 0.03c-0.26,0.01 -0.5,0.02 -0.73,0.02l-0.44 -0.01 -2.27 3.79c-0.16,0.26 -0.48,0.37 -0.76,0.26l-5.25 -2.08c-0.31,-0.12 -0.46,-0.46 -0.36,-0.77l1.02 -4.13 -0.29 -0.26c-0.19,-0.17 -0.36,-0.33 -0.51,-0.48 -0.1,-0.1 -0.21,-0.21 -0.3,-0.32l-4.29 1.07c-0.31,0.08 -0.63,-0.1 -0.74,-0.4l-2.23 -5.14c-0.12,-0.29 -0.01,-0.62 0.25,-0.77l3.68 -2.23 -0.03 -0.36c-0.01,-0.26 -0.02,-0.5 -0.02,-0.73l0.01 -0.44 -3.79 -2.27c-0.26,-0.16 -0.37,-0.48 -0.26,-0.76l2.08 -5.25c0.12,-0.31 0.46,-0.46 0.77,-0.36l4.13 1.02 0.26 -0.29c0.17,-0.19 0.33,-0.36 0.48,-0.51 0.11,-0.1 0.21,-0.21 0.32,-0.3zm0.26 -4.08l1.03 4.14c0.05,0.22 -0.01,0.46 -0.19,0.62 -0.17,0.16 -0.38,0.34 -0.54,0.51 -0.17,0.17 -0.31,0.32 -0.43,0.46l-0.03 0.03c-0.15,0.17 -0.29,0.34 -0.43,0.51 -0.15,0.18 -0.39,0.28 -0.64,0.22l-4.03 -0.99 -1.69 4.26 3.63 2.17c0.21,0.11 0.34,0.34 0.33,0.59l-0.02 0.37 -0 0.37c0,0.24 0.01,0.46 0.02,0.66l0 0.01c0.01,0.22 0.03,0.44 0.06,0.67 0.03,0.24 -0.08,0.48 -0.3,0.61l-3.55 2.15 1.82 4.2 4.14 -1.03c0.22,-0.05 0.46,0.01 0.62,0.19 0.17,0.19 0.33,0.36 0.51,0.54 0.17,0.17 0.32,0.31 0.45,0.43l0.03 0.03c0.17,0.15 0.34,0.29 0.51,0.43 0.18,0.15 0.28,0.39 0.22,0.64l-0.99 4.03 4.26 1.69 2.17 -3.63c0.11,-0.21 0.34,-0.34 0.59,-0.33l0.37 0.02 0.37 0c0.24,0 0.46,-0.01 0.66,-0.02l0.01 -0c0.22,-0.01 0.44,-0.03 0.67,-0.06 0.24,-0.03 0.48,0.08 0.61,0.3l2.15 3.55 4.2 -1.82 -1.03 -4.14c-0.05,-0.22 0.01,-0.46 0.19,-0.62l0.27 -0.25 0.26 -0.26c0.17,-0.17 0.32,-0.33 0.46,-0.49 0.14,-0.15 0.28,-0.32 0.43,-0.51 0.15,-0.18 0.39,-0.28 0.64,-0.22l4.03 0.99 1.69 -4.26 -3.63 -2.18c-0.21,-0.11 -0.34,-0.34 -0.33,-0.59l0.02 -0.37 0 -0.37c0,-0.24 -0.01,-0.47 -0.02,-0.67 -0.01,-0.22 -0.03,-0.44 -0.06,-0.67 -0.03,-0.23 0.08,-0.47 0.3,-0.6l3.55 -2.15 -1.82 -4.2 -4.14 1.03c-0.22,0.05 -0.46,-0.01 -0.62,-0.19l-0.25 -0.28 -0.26 -0.26c-0.17,-0.17 -0.32,-0.31 -0.45,-0.43l-0.03 -0.03c-0.17,-0.15 -0.34,-0.29 -0.51,-0.43 -0.18,-0.15 -0.28,-0.39 -0.22,-0.64l0.99 -4.03 -4.26 -1.69 -2.18 3.63c-0.11,0.21 -0.34,0.34 -0.59,0.33l-0.37 -0.02 -0.37 -0c-0.24,0 -0.46,0.01 -0.66,0.02l-0.01 0c-0.22,0.01 -0.44,0.03 -0.67,0.06 -0.24,0.03 -0.48,-0.08 -0.61,-0.3l-2.15 -3.55 -4.2 1.82z"/>
   <path class="fil0" d="M15 30.58c-0.6,0 -1.09,-0.49 -1.09,-1.09 0,-0.6 0.49,-1.09 1.09,-1.09l18.23 0c0.6,0 1.09,0.49 1.09,1.09 0,0.6 -0.49,1.09 -1.09,1.09l-18.23 0z"/>
   <path class="fil0" d="M15 48.37c-0.6,0 -1.09,-0.49 -1.09,-1.09 0,-0.6 0.49,-1.09 1.09,-1.09l17.41 0c0.6,0 1.09,0.49 1.09,1.09 0,0.6 -0.49,1.09 -1.09,1.09l-17.41 0z"/>
  </g>
 </g>
</svg>
