<?xml version="1.0" encoding="UTF-8"?>
<!DOCTYPE svg PUBLIC "-//W3C//DTD SVG 1.1//EN" "http://www.w3.org/Graphics/SVG/1.1/DTD/svg11.dtd">
<!-- Creator: CorelDRAW 2020 (64 Bit) -->
<svg xmlns="http://www.w3.org/2000/svg" xml:space="preserve" width="13.5201mm" height="14.3345mm" version="1.1" style="shape-rendering:geometricPrecision; text-rendering:geometricPrecision; image-rendering:optimizeQuality; fill-rule:evenodd; clip-rule:evenodd"
viewBox="0 0 45.72 48.48"
 xmlns:xlink="http://www.w3.org/1999/xlink"
 xmlns:xodm="http://www.corel.com/coreldraw/odm/2003">
 <defs>
  <style type="text/css">
   <![CDATA[
    .fil0 {fill:#6E89C6;fill-rule:nonzero}
   ]]>
  </style>
 </defs>
 <g id="Camada_x0020_1">
  <metadata id="CorelCorpID_0Corel-Layer"/>
  <g id="_1489959990928">
   <path class="fil0" d="M1.71 0l35.76 0c0.47,0 0.9,0.19 1.21,0.5l0 0c0.31,0.31 0.5,0.74 0.5,1.21l0 8 -1.6 3.62 0 -11.62c0,-0.03 -0.01,-0.06 -0.03,-0.08l-0 -0c-0.02,-0.02 -0.05,-0.03 -0.08,-0.03l-35.76 0c-0.03,0 -0.06,0.01 -0.08,0.03l-0 0c-0.02,0.02 -0.03,0.05 -0.03,0.08l0 37.15 8.01 8.01 27.86 0c0.03,0 0.06,-0.01 0.08,-0.03l0 -0c0.02,-0.02 0.03,-0.05 0.03,-0.08l0 -19.02 1.6 -3.62 0 22.64c0,0.47 -0.19,0.9 -0.5,1.21l-0 0c-0.31,0.31 -0.74,0.5 -1.21,0.5l-28.52 0 -8.95 -8.95 0 -37.81c0,-0.47 0.19,-0.9 0.5,-1.21l0 -0c0.31,-0.31 0.74,-0.5 1.21,-0.5z"/>
   <path class="fil0" d="M8.48 45.75l0 -5.76 -5.76 0 5.76 5.76zm1.6 1.93l-0.8 0 -8.48 -8.48 0 -0.8 8.27 0c0.28,0 0.53,0.11 0.71,0.3l0 -0c0.18,0.18 0.3,0.44 0.3,0.71l0 8.27z"/>
   <path class="fil0" d="M32.04 25.91l8.32 -18.85c0.12,-0.27 0.43,-0.39 0.7,-0.27l4.35 1.92c0.27,0.12 0.39,0.43 0.27,0.7l-8.32 18.85c-0.03,0.06 -0.06,0.12 -0.11,0.16l-5.21 5.98c-0.11,0.14 -0.29,0.23 -0.48,0.21 -0.29,-0.03 -0.5,-0.3 -0.47,-0.59l0.91 -7.94c0.01,-0.06 0.02,-0.11 0.04,-0.16zm9.08 -17.94l-1.5 3.41 3.38 1.49 1.5 -3.41 -3.38 -1.49zm-1.93 4.38l-5.96 13.5 3.38 1.49 5.96 -13.5 -3.38 -1.49zm-3.18 15.89l-3.03 -1.34 -0.63 5.54 3.66 -4.2z"/>
   <path class="fil0" d="M19.81 40.75c-0.13,0.26 -0.45,0.37 -0.71,0.24 -0.26,-0.13 -0.37,-0.45 -0.24,-0.71l1.8 -3.59c0.13,-0.26 0.45,-0.37 0.71,-0.24 0.14,0.07 0.24,0.2 0.28,0.35l0 -0 0.61 2.48 2.11 -1.1c0.25,-0.13 0.55,-0.04 0.7,0.19l1.16 1.54 3.62 -4.31c0.19,-0.22 0.52,-0.25 0.75,-0.07 0.22,0.19 0.25,0.52 0.07,0.75l-4.05 4.82 -0 -0c-0.03,0.03 -0.06,0.06 -0.09,0.08 -0.23,0.18 -0.57,0.13 -0.74,-0.11l-1.31 -1.75 -2.31 1.2c-0.04,0.02 -0.08,0.03 -0.12,0.04 -0.28,0.07 -0.57,-0.1 -0.64,-0.39l-0.43 -1.73 -1.15 2.3z"/>
   <path class="fil0" d="M19.58 44.43c-0.29,0 -0.53,-0.24 -0.53,-0.53 0,-0.29 0.24,-0.53 0.53,-0.53l12.21 0c0.29,0 0.53,0.24 0.53,0.53 0,0.29 -0.24,0.53 -0.53,0.53l-12.21 0z"/>
   <path class="fil0" d="M25.67 3.77c0.29,0 0.53,0.24 0.53,0.53 0,0.29 -0.24,0.53 -0.53,0.53l-12.11 0c-0.29,0 -0.53,-0.24 -0.53,-0.53 0,-0.29 0.24,-0.53 0.53,-0.53l12.11 0z"/>
   <path class="fil0" d="M31.35 7.57c0.29,0 0.53,0.24 0.53,0.53 0,0.29 -0.24,0.53 -0.53,0.53l-23.48 0c-0.29,0 -0.53,-0.24 -0.53,-0.53 0,-0.29 0.24,-0.53 0.53,-0.53l23.48 0z"/>
   <path class="fil0" d="M31.35 11.37c0.29,0 0.53,0.24 0.53,0.53 0,0.29 -0.24,0.53 -0.53,0.53l-23.48 0c-0.29,0 -0.53,-0.24 -0.53,-0.53 0,-0.29 0.24,-0.53 0.53,-0.53l23.48 0z"/>
   <path class="fil0" d="M31.35 15.17c0.29,0 0.53,0.24 0.53,0.53 0,0.29 -0.24,0.53 -0.53,0.53l-23.48 0c-0.29,0 -0.53,-0.24 -0.53,-0.53 0,-0.29 0.24,-0.53 0.53,-0.53l23.48 0z"/>
   <path class="fil0" d="M31.35 18.97c0.29,0 0.53,0.24 0.53,0.53 0,0.29 -0.24,0.53 -0.53,0.53l-23.48 0c-0.29,0 -0.53,-0.24 -0.53,-0.53 0,-0.29 0.24,-0.53 0.53,-0.53l23.48 0z"/>
   <path class="fil0" d="M18.91 22.78c0.29,0 0.53,0.24 0.53,0.53 0,0.29 -0.24,0.53 -0.53,0.53l-12.11 0c-0.29,0 -0.53,-0.24 -0.53,-0.53 0,-0.29 0.24,-0.53 0.53,-0.53l12.11 0z"/>
  </g>
 </g>
</svg>
