<?xml version="1.0" encoding="UTF-8"?>
<!DOCTYPE svg PUBLIC "-//W3C//DTD SVG 1.1//EN" "http://www.w3.org/Graphics/SVG/1.1/DTD/svg11.dtd">
<!-- Creator: CorelDRAW 2020 (64 Bit) -->
<svg xmlns="http://www.w3.org/2000/svg" xml:space="preserve" width="11.8534mm" height="11.8534mm" version="1.1" style="shape-rendering:geometricPrecision; text-rendering:geometricPrecision; image-rendering:optimizeQuality; fill-rule:evenodd; clip-rule:evenodd"
viewBox="0 0 73.71 73.71"
 xmlns:xlink="http://www.w3.org/1999/xlink"
 xmlns:xodm="http://www.corel.com/coreldraw/odm/2003">
 <defs>
  <style type="text/css">
   <![CDATA[
    .fil0 {fill:white}
   ]]>
  </style>
 </defs>
 <g id="Camada_x0020_1">
  <metadata id="CorelCorpID_0Corel-Layer"/>
  <path class="fil0" d="M21.01 12.08c-9.73,1.72 -8.88,10.23 -8.88,16.01 0,6.78 -0.7,18.48 0.1,24.68 1.22,9.45 10.15,9 15.71,9 6.06,-0 19.83,0.73 25,-0.18 9.43,-1.66 8.65,-10.6 8.64,-16.08 -0,-6.8 0.69,-18.42 -0.1,-24.65 -1.19,-9.36 -10.49,-8.93 -15.73,-8.92 -5.88,0 -19.89,-0.72 -24.76,0.14zm-0.29 4.58c-5.98,2.08 -4.31,9.28 -4.31,16.29 0,25.98 -2.44,24.5 16.4,24.5 3.6,0 17.81,0.41 20.14,-0.33 5.9,-1.87 4.36,-9.33 4.36,-16.08 0,-25.82 2.89,-24.84 -16.39,-24.84 -3.87,0 -17.58,-0.46 -20.19,0.44zm13.02 7.71c-16.92,4.34 -9.95,29.64 6.53,24.96 16.47,-4.68 9.72,-29.13 -6.53,-24.96zm0.5 4.28c-10.66,3.7 -5.65,19.7 5.04,16.47 3.83,-1.16 7.39,-5.34 5.83,-10.74 -1.09,-3.8 -5.69,-7.53 -10.87,-5.73zm15.08 -8.02c-3.31,1.87 -0.81,7.36 3.1,5.25 2.91,-1.56 0.7,-7.4 -3.1,-5.25zm-40.47 -20.63l56.02 0c4.86,0 8.84,3.98 8.84,8.84l0 56.02c0,4.86 -3.98,8.84 -8.84,8.84l-56.02 0c-4.86,0 -8.84,-3.98 -8.84,-8.84l0 -56.02c0,-4.86 3.98,-8.84 8.84,-8.84z"/>
 </g>
</svg>
