<?xml version="1.0" encoding="UTF-8"?>
<!DOCTYPE svg PUBLIC "-//W3C//DTD SVG 1.1//EN" "http://www.w3.org/Graphics/SVG/1.1/DTD/svg11.dtd">
<!-- Creator: CorelDRAW 2020 (64 Bit) -->
<svg xmlns="http://www.w3.org/2000/svg" xml:space="preserve" width="5.8335mm" height="7.5807mm" version="1.1" style="shape-rendering:geometricPrecision; text-rendering:geometricPrecision; image-rendering:optimizeQuality; fill-rule:evenodd; clip-rule:evenodd"
viewBox="0 0 113.79 147.87"
 xmlns:xlink="http://www.w3.org/1999/xlink"
 xmlns:xodm="http://www.corel.com/coreldraw/odm/2003">
 <defs>
  <style type="text/css">
   <![CDATA[
    .fil0 {fill:white}
   ]]>
  </style>
 </defs>
 <g id="Camada_x0020_1">
  <metadata id="CorelCorpID_0Corel-Layer"/>
  <path class="fil0" d="M33.5 57.76l0 -1.45c0,-12.36 10.27,-22.81 23.97,-22.81 12.2,0 22.81,10.61 22.81,22.81 0,6.98 -2.25,12.48 -6.86,17.11 -11.01,11.05 -29.99,8.75 -37.62,-6.43 -1.19,-2.36 -2.31,-5.73 -2.31,-9.24zm-33.5 -2.89c0,10.59 3.03,18.46 7.51,27.44 0.56,1.12 1.04,1.87 1.64,2.98 3.67,6.83 7.64,13.56 12.27,19.79l9.69 13.12c3.92,5.28 8.73,10.42 12.54,15.18l8.69 9.79c0.8,0.79 1.59,1.49 2.31,2.31 0.91,1.03 1.05,1.58 2.24,2.38 1.11,-0.74 1.27,-1.22 2.11,-2.22l15.26 -17.09c2.75,-3.4 5.5,-6.47 8.17,-10.02 9.07,-12.06 12.9,-17.1 20.55,-29.99 4.68,-7.88 10.81,-21.95 10.81,-30.78 0,-9.84 -1.49,-16.53 -5.39,-24.93 -4.58,-9.87 -10.2,-16.02 -18.62,-22.39 -1.39,-1.06 -2.7,-1.77 -4.24,-2.7 -7.46,-4.5 -18.04,-7.74 -26.62,-7.74l-0.28 0c-5.78,0 -10.14,0.06 -15.64,1.7 -2.87,0.85 -5,1.35 -7.85,2.55l-6.72 3.39c-3.38,2.03 -7.2,4.58 -10.02,7.31 -4.78,4.6 -8.81,9.6 -11.96,15.48l-3.02 7.09c-0.31,0.82 -0.62,1.47 -0.93,2.53 -1.32,4.49 -2.49,9.72 -2.49,14.84z"/>
 </g>
</svg>
