<?xml version="1.0" encoding="UTF-8"?>
<!DOCTYPE svg PUBLIC "-//W3C//DTD SVG 1.1//EN" "http://www.w3.org/Graphics/SVG/1.1/DTD/svg11.dtd">
<!-- Creator: CorelDRAW 2020 (64 Bit) -->
<svg xmlns="http://www.w3.org/2000/svg" xml:space="preserve" width="12.9296mm" height="13.7538mm" version="1.1" style="shape-rendering:geometricPrecision; text-rendering:geometricPrecision; image-rendering:optimizeQuality; fill-rule:evenodd; clip-rule:evenodd"
viewBox="0 0 43.92 46.72"
 xmlns:xlink="http://www.w3.org/1999/xlink"
 xmlns:xodm="http://www.corel.com/coreldraw/odm/2003">
 <defs>
  <style type="text/css">
   <![CDATA[
    .fil0 {fill:#6287A3}
   ]]>
  </style>
 </defs>
 <g id="Camada_x0020_1">
  <metadata id="CorelCorpID_0Corel-Layer"/>
  <g id="_1489906519504">
   <path class="fil0" d="M35.11 35.15l0.02 8.33c-0.05,0.73 -0.59,1.31 -1.34,1.35 -1.94,0.09 -1.46,-2.59 -1.46,-4.14 0,-0.88 -0.06,-5 0.04,-5.55l2.74 0.01zm-15.9 1.06c-1.35,-0.03 -2.66,-0.02 -2.65,-2.1 0.01,-1.59 0,-3.18 0,-4.77 0,-1.58 -0.31,-3.23 0.79,-3.96 0.84,-0.57 5.15,-0.28 6.84,-0.31 1.74,-0.03 2.42,0.54 2.42,2.31 -0.01,2.05 0.1,5.37 -0,7.12 -0.12,2.07 -2.31,1.63 -2.92,1.75 -0.02,1.86 -0,3.73 -0,5.59 0,3.32 0.29,3.3 -2.29,3.3 -0.91,0 -1.83,0.12 -2.11,-0.65 -0.14,-0.37 -0.07,-7.52 -0.07,-8.26zm17.87 -15.6c-0.16,-0.5 -0.26,-1 -0.63,-1.19 -0.52,-0.27 -1.07,0.09 -1.15,0.53 -0.08,0.45 2.32,7.5 2.55,8.2 0.31,0.94 0.58,1.82 0.89,2.75 0.22,0.65 0.73,2.04 0.84,2.65l-11.37 0c-0.17,-1.26 -0.02,-3.67 -0.02,-5.05 0,-1.84 0.13,-2.92 -0.98,-4.01 -1.17,-1.15 -2.09,-1.01 -4.09,-1.01 -1.59,0.01 -3.44,-0.1 -5,-0 -0.75,0.05 -1.42,0.36 -1.88,0.72 -1.74,1.38 -1.28,3.71 -1.28,6.19 0,1.15 -0.13,3.93 0.11,4.88 0.44,1.71 1.59,2.01 2.52,2.47 0.13,0.82 -0.01,5.08 0.03,6.44 0.03,0.95 0.52,1.67 1.09,2.06 0.82,0.56 1.64,0.47 2.75,0.47 1.2,0 1.87,0.11 2.73,-0.49 0.55,-0.38 1.05,-1.09 1.08,-2.12 0.06,-2.04 -0.13,-4.34 0.01,-6.33 1.14,-0.28 1.95,-0.74 2.47,-1.7 0.16,-0.29 0.27,-0.72 0.42,-0.95l2.54 0.01c0.08,0.39 0.06,7.42 0.03,8.26 -0.05,1.22 -1.41,1.89 -2.32,1.07 -1.26,-1.14 0.28,-4.86 -1.03,-5.26 -0.63,-0.19 -1.02,0.3 -1.04,0.93 -0.06,2.48 -0.49,5.45 2.21,6.16 0.57,0.15 1.21,0.13 1.73,-0.05 0.7,-0.24 0.87,-0.52 1.24,-0.77 2.27,2 4.9,0.45 5.16,-1.69 0.11,-0.93 0,-7.05 0.03,-8.67 0.89,-0.01 1.79,-0 2.68,-0 0.78,0 1.84,0.18 2.06,-0.56 0.15,-0.51 -0.99,-3.28 -1.14,-4.08 1.2,0.08 2.18,-0.26 2.76,-0.88 1.57,-1.64 0.55,-3.57 -0.1,-5.45l-2.71 -8.04c-0.75,-2.16 -1.17,-3.2 -2.96,-4.24 -1.72,-1 -4.29,-0.71 -6.47,-0.71 -1.21,0 -2.42,-0 -3.63,-0 -2.23,0 -3.47,1.51 -2.61,2.23 0.51,0.43 0.95,0.06 1.25,-0.2 0.72,-0.64 1.98,-0.44 3.11,-0.44 1.59,0 5.73,-0.18 6.96,0.23 0.9,0.3 1.61,0.95 2.03,1.61 0.57,0.89 2.4,6.72 2.83,7.99 0.31,0.92 0.62,1.79 0.92,2.72 0.24,0.74 0.86,1.99 0.53,2.77 -0.37,0.86 -1.57,1.18 -2.32,0.47 -0.51,-0.48 -0.78,-1.7 -1.05,-2.51 -0.6,-1.78 -1.18,-3.6 -1.77,-5.41z"/>
   <path class="fil0" d="M4.45 32.03c0.06,3.91 0.01,7.86 0,11.77 -0,2.42 0.7,2.91 3,2.91 1.97,-0 3.94,0 5.9,0 1.84,0 3.2,-0.05 3.2,-2.69 -0,-0.98 0,-1.97 0.01,-2.95 0,-0.77 0.24,-2.28 -0.3,-2.68 -0.37,-0.27 -0.87,-0.18 -1.09,0.1 -0.33,0.41 -0.2,3.61 -0.2,4.24 -0,0.48 -0,0.96 -0,1.44 0,0.57 -0,0.9 -0.56,0.95 -0.57,0.05 -2.34,0.05 -2.89,-0.02 -0.09,-0.63 -0.03,-11.77 -0.02,-13.57 0,-0.66 -0.1,-1.22 -0.79,-1.23 -1.09,-0 -0.8,1.61 -0.8,3.04 0,3.88 0.05,7.94 -0,11.77 -0.67,0 -1.33,0 -2,0 -2.33,0 -1.87,0.5 -1.87,-4.28l0 -20.21c0,-0.58 0.15,-1.44 -0.24,-1.83 -0.46,-0.45 -1.15,-0.17 -1.3,0.3 -0.17,0.53 -0.05,6.93 -0.05,8.04 0,1.18 0.27,2.83 -0.65,3.39 -0.7,0.43 -2.17,0.29 -2.18,-1.42l0 -12.19c0,-2.5 1.44,-4.14 3.93,-4.16l8.1 0c1.35,0 2.75,-0.24 3.51,0.56 0.34,0.35 0.94,0.61 1.33,0.03 0.39,-0.59 -0.08,-1.04 -0.4,-1.33 -0.95,-0.84 -1.68,-0.85 -3.22,-0.85 -2.7,0 -5.4,0 -8.1,0 -2.33,0 -4.27,0.09 -5.79,2.3 -1.31,1.89 -0.94,4.54 -0.94,7.15 0,2.7 0,5.4 -0,8.1 -0,1.54 0.29,2.22 1.13,2.95 0.98,0.85 1.97,0.73 3.27,0.34z"/>
   <path class="fil0" d="M28.38 5.12c-0.18,-1.84 1.16,-3.3 2.77,-3.5 1.89,-0.23 3.4,1.19 3.57,2.82 0.19,1.85 -1.19,3.33 -2.81,3.51 -1.89,0.21 -3.37,-1.2 -3.53,-2.83zm2.26 -5.02c-2.3,0.46 -4.32,2.66 -3.79,5.54 0.43,2.33 2.69,4.38 5.63,3.83 2.28,-0.43 4.3,-2.71 3.77,-5.57 -0.43,-2.32 -2.71,-4.38 -5.6,-3.8z"/>
   <path class="fil0" d="M9.52 1.69c1.98,-0.43 3.45,0.9 3.8,2.42 0.44,1.91 -0.95,3.48 -2.45,3.8 -1.89,0.41 -3.44,-0.91 -3.78,-2.43 -0.44,-1.94 0.94,-3.47 2.43,-3.79zm-0.21 -1.57c-2.34,0.46 -4.35,2.64 -3.8,5.58 0.42,2.27 2.68,4.33 5.56,3.79 2.31,-0.43 4.39,-2.72 3.82,-5.6 -0.46,-2.31 -2.69,-4.34 -5.58,-3.77z"/>
   <path class="fil0" d="M21.08 15.9c1.31,-0.25 2.39,0.71 2.58,1.78 0.24,1.35 -0.72,2.42 -1.77,2.61 -2.94,0.53 -3.73,-3.84 -0.82,-4.39zm-0.02 -1.6c-2,0.23 -3.62,1.94 -3.4,4.21 0.19,1.98 2,3.63 4.24,3.38 1.93,-0.21 3.6,-1.96 3.36,-4.22 -0.21,-1.97 -2.01,-3.62 -4.21,-3.38z"/>
  </g>
 </g>
</svg>
