<?xml version="1.0" encoding="UTF-8"?>
<!DOCTYPE svg PUBLIC "-//W3C//DTD SVG 1.1//EN" "http://www.w3.org/Graphics/SVG/1.1/DTD/svg11.dtd">
<!-- Creator: CorelDRAW 2020 (64 Bit) -->
<svg xmlns="http://www.w3.org/2000/svg" xml:space="preserve" width="15.8587mm" height="11.8541mm" version="1.1" style="shape-rendering:geometricPrecision; text-rendering:geometricPrecision; image-rendering:optimizeQuality; fill-rule:evenodd; clip-rule:evenodd"
viewBox="0 0 65.57 49.01"
 xmlns:xlink="http://www.w3.org/1999/xlink"
 xmlns:xodm="http://www.corel.com/coreldraw/odm/2003">
 <defs>
  <style type="text/css">
   <![CDATA[
    .fil1 {fill:#6287A3}
    .fil0 {fill:#6287A3;fill-rule:nonzero}
   ]]>
  </style>
 </defs>
 <g id="Camada_x0020_1">
  <metadata id="CorelCorpID_0Corel-Layer"/>
  <g id="_1489675626224">
   <path class="fil0" d="M31.57 9.28l0.6 -0.66c0.32,-0.37 0.65,-0.73 0.97,-1.11 0.31,-0.37 0.61,-0.72 0.9,-1.07 0.34,-0.42 0.63,-0.78 0.88,-1.11l0.81 -1.05c0.37,-0.48 0.68,-0.89 0.97,-1.23 0.17,-0.2 0.32,-0.37 0.47,-0.52 0.15,-0.15 0.28,-0.27 0.41,-0.36 0.17,-0.13 0.33,-0.22 0.49,-0.28 0.17,-0.06 0.33,-0.09 0.49,-0.1 0.16,-0.01 0.32,-0 0.49,0.04 0.16,0.04 0.34,0.1 0.55,0.2 0.16,0.08 0.35,0.18 0.56,0.31 0.2,0.12 0.46,0.28 0.79,0.49 0.73,0.46 1.78,1.15 3.17,2.07 4.85,3.2 9.71,6.36 14.57,9.55l1.39 0.92c0.37,0.25 0.7,0.48 1,0.68 0.3,0.21 0.54,0.38 0.73,0.52 0.21,0.16 0.39,0.31 0.54,0.44 0.16,0.14 0.28,0.26 0.37,0.38 0.13,0.16 0.22,0.31 0.29,0.46 0.07,0.15 0.11,0.3 0.12,0.46 0.02,0.14 0.02,0.28 -0,0.42 -0.02,0.14 -0.05,0.29 -0.1,0.43 -0.04,0.12 -0.1,0.25 -0.17,0.38 -0.06,0.13 -0.14,0.26 -0.23,0.4 -0.08,0.13 -0.18,0.26 -0.3,0.42 -0.12,0.16 -0.26,0.33 -0.44,0.54l-0.64 0.74c-0.7,0.78 -1.39,1.57 -2.09,2.34 1.51,1.08 3.03,2.16 4.54,3.24l0.68 0.5 0.43 0.32 0.26 0.22c0.07,0.06 0.12,0.11 0.16,0.15 0.05,0.06 0.1,0.11 0.14,0.17 0.04,0.06 0.08,0.13 0.12,0.21l0.03 0.06c0.03,0.08 0.05,0.16 0.06,0.25 0.01,0.08 0.01,0.16 0.01,0.25 -0.01,0.23 -0.02,0.53 -0.07,0.76 -0.02,0.15 -0.05,0.27 -0.13,0.41 -0.08,0.13 -0.2,0.25 -0.4,0.39 -0.09,0.06 -0.22,0.13 -0.38,0.21l-0.63 0.31c-3.99,1.88 -8.01,3.7 -12.02,5.52l-2.89 1.29c-0.89,0.4 -1.62,0.72 -2.13,0.94 -0.62,0.27 -1.14,0.48 -1.58,0.66 -0.42,0.17 -0.74,0.29 -0.99,0.37 -0.28,0.1 -0.49,0.15 -0.65,0.18 -0.17,0.03 -0.3,0.04 -0.42,0.04 -0.13,0 -0.24,-0 -0.34,-0.02 -0.11,-0.01 -0.2,-0.04 -0.29,-0.07 -0.11,-0.04 -0.21,-0.08 -0.29,-0.13 -0.08,-0.05 -0.16,-0.11 -0.22,-0.17l-7.82 -7.23 0 -2.31 8.05 7.45 0.13 -0.15c0.17,-0.18 0.38,-0.39 0.65,-0.66 0.27,-0.26 0.62,-0.59 1.08,-1.01l1.65 -1.5c1.78,-1.6 4.12,-3.7 6.22,-5.76 0.72,-0.71 1.42,-1.41 2.09,-2.09 0.68,-0.7 1.31,-1.36 1.88,-1.97 0.55,-0.59 1.1,-1.19 1.62,-1.76l1.31 -1.46 0.93 -1.05 0.64 -0.74c0.17,-0.2 0.29,-0.35 0.38,-0.47 0.1,-0.13 0.17,-0.23 0.23,-0.32 0.06,-0.09 0.1,-0.16 0.14,-0.23 0.03,-0.07 0.06,-0.12 0.08,-0.17l0.02 -0.1 -0.03 -0.04c-0.05,-0.06 -0.12,-0.13 -0.22,-0.22 -0.11,-0.09 -0.24,-0.2 -0.41,-0.33 -0.2,-0.15 -0.42,-0.31 -0.67,-0.49l-0.97 -0.67 -1.3 -0.86 -5.8 -3.79c-1.46,-0.96 -3.06,-2 -5.73,-3.75l-3.09 -2.04c-1.39,-0.92 -2.44,-1.61 -3.17,-2.08 -0.27,-0.17 -0.51,-0.32 -0.72,-0.44 -0.2,-0.12 -0.35,-0.2 -0.46,-0.25 -0.08,-0.04 -0.13,-0.06 -0.17,-0.07l-0.02 -0.01 -0.07 0.04c-0.07,0.05 -0.15,0.12 -0.24,0.22 -0.1,0.1 -0.21,0.23 -0.35,0.39 -0.23,0.28 -0.55,0.69 -0.92,1.17l-0.84 1.09c-0.3,0.38 -0.6,0.77 -0.89,1.12 -0.27,0.33 -0.57,0.68 -0.9,1.07 -0.31,0.36 -0.64,0.74 -1.01,1.16l-0.36 0.4c-0.43,-0.39 -0.94,-0.69 -1.51,-0.86zm11.08 30.21c0.02,0.02 0.04,0.02 0.06,0.02 0.02,-0 0.04,-0.01 0.06,-0.03l0 -0.01 -0.12 0.01zm-0.03 -0.03l0.03 0.03 -0.03 -0.03zm-0.1 -0.19l0.02 0.08 0.07 -0.12 -0.09 -0.08c-0.01,0.05 -0.01,0.09 -0,0.13zm15.45 -14.02l-0.68 0.73c-0.62,0.66 -1.26,1.34 -1.92,2.01 -0.67,0.69 -1.38,1.4 -2.1,2.11 -2.17,2.12 -4.51,4.22 -6.28,5.82l-1.63 1.47c-0.41,0.38 -0.75,0.7 -1.04,0.97l-0.08 0.07 0.44 -0.17c0.38,-0.15 0.88,-0.36 1.54,-0.64 0.72,-0.31 1.44,-0.63 2.15,-0.94l2.85 -1.28c4.12,-1.87 8.6,-3.75 12.62,-5.81l0.01 -0.11 -0.5 -0.38c-1.78,-1.3 -3.58,-2.57 -5.38,-3.85zm-15.2 14.23l-0.16 -0.01 0.16 0.01zm-2.45 -7.74c-0.17,0.16 -0.39,0.23 -0.61,0.23 -0.22,-0.01 -0.43,-0.1 -0.59,-0.27 -0.16,-0.17 -0.23,-0.39 -0.23,-0.61 0.01,-0.22 0.1,-0.43 0.27,-0.59l0.07 -0.06c2.6,-2.38 5.21,-4.76 7.55,-7.19 1.18,-1.22 2.29,-2.45 3.36,-3.67 1.08,-1.24 2.11,-2.47 3.15,-3.69 0.15,-0.18 0.36,-0.28 0.58,-0.3 0.22,-0.02 0.44,0.05 0.62,0.2l0.02 0.02c0.17,0.15 0.26,0.35 0.28,0.56 0.02,0.22 -0.05,0.44 -0.2,0.62l-0.02 0.03c-2.1,2.49 -4.2,4.98 -6.56,7.43 -2.36,2.44 -5.02,4.87 -7.68,7.3l-0.01 0.01zm3.99 2.27c-0.17,0.17 -0.38,0.25 -0.6,0.25 -0.22,0 -0.43,-0.08 -0.6,-0.25 -0.17,-0.17 -0.25,-0.39 -0.25,-0.6 0,-0.22 0.08,-0.43 0.25,-0.6l0.04 -0.04c1.28,-1.22 2.55,-2.45 3.77,-3.64 1.22,-1.19 2.39,-2.36 3.45,-3.47 1.07,-1.12 2.03,-2.17 2.94,-3.2 0.89,-1.01 1.77,-2.03 2.64,-3.05l0.02 -0.02c0.15,-0.17 0.36,-0.26 0.56,-0.27 0.22,-0.02 0.44,0.05 0.62,0.2 0.18,0.15 0.28,0.36 0.3,0.58 0.02,0.22 -0.05,0.44 -0.2,0.62l-0.01 0.02c-1.74,2.03 -3.48,4.06 -5.64,6.31 -2.15,2.24 -4.7,4.69 -7.26,7.14l-0.03 0.03zm-10.01 -21.14c0.6,-0.65 1.16,-1.26 1.66,-1.81 1.1,-1.21 1.91,-2.15 2.57,-2.94 0.65,-0.78 1.15,-1.41 1.64,-2.03l0.04 -0.05c0.14,-0.18 0.35,-0.29 0.57,-0.32 0.22,-0.03 0.44,0.03 0.63,0.18 0.18,0.14 0.29,0.35 0.32,0.57 0.03,0.22 -0.03,0.44 -0.18,0.63l-0.02 0.03c-0.52,0.65 -1.04,1.31 -1.7,2.09 -0.67,0.8 -1.49,1.75 -2.62,2.99 -0.83,0.91 -1.82,1.98 -2.92,3.16l0 -2.42 -0 -0.07zm9.02 0.56c0.2,0.16 0.15,1.38 0.14,1.67 -0.02,0.46 -0.03,0.76 -0.1,1.64l0.97 0.44 0.56 0.28c0.1,0.05 0.19,0.11 0.27,0.16 0.09,0.07 0.17,0.14 0.24,0.22 0.1,0.13 0.17,0.27 0.2,0.42 0.03,0.15 0.02,0.31 -0.02,0.48 -0.04,0.12 -0.09,0.23 -0.16,0.32 -0.07,0.09 -0.15,0.18 -0.25,0.25 -0.07,0.05 -0.14,0.09 -0.21,0.14l-0.24 0.12c-0.67,0.3 -1.43,0.66 -2.1,0.89l-0.02 0.03c-0.04,0.07 -0.09,0.18 -0.17,0.36l-0.18 0.43 -0.2 0.51c-0.16,0.43 -0.31,0.87 -0.49,1.29 -0.04,0.08 -0.08,0.16 -0.13,0.22 -0.05,0.07 -0.11,0.14 -0.18,0.19 -0.17,0.14 -0.34,0.23 -0.52,0.25 -0.19,0.03 -0.37,-0.01 -0.55,-0.1 -0.11,-0.05 -0.2,-0.12 -0.29,-0.21 -0.08,-0.07 -0.15,-0.16 -0.23,-0.25 -0.24,-0.36 -0.71,-0.87 -1.01,-1.23l-1.24 0.25 -0.47 0.09c-0.15,0.03 -0.29,0.05 -0.41,0.06 -0.14,0.02 -0.28,0.02 -0.4,0.01 -0.14,-0.01 -0.26,-0.04 -0.38,-0.08 -0.19,-0.07 -0.34,-0.18 -0.45,-0.33 -0.11,-0.14 -0.17,-0.32 -0.18,-0.52 -0.01,-0.12 0,-0.24 0.03,-0.35 0.03,-0.11 0.07,-0.21 0.13,-0.32 0.04,-0.07 0.09,-0.15 0.14,-0.22l0.16 -0.21c0.44,-0.55 0.9,-1.13 1.36,-1.64l-0.42 -1.64c-0.02,-0.1 -0.04,-0.18 -0.05,-0.26 -0.01,-0.09 -0.01,-0.17 -0.01,-0.26 0.01,-0.14 0.03,-0.26 0.08,-0.38 0.04,-0.11 0.1,-0.2 0.18,-0.29l0.04 -0.04c0.09,-0.1 0.2,-0.17 0.31,-0.22 0.11,-0.05 0.23,-0.08 0.36,-0.1 0.08,-0.01 0.16,-0.01 0.26,-0.01 0.09,0 0.18,0.01 0.26,0.02 0.17,0.02 0.39,0.05 0.63,0.09 0.39,0.06 0.79,0.13 1.18,0.18l0.9 -0.86c0.33,-0.32 0.66,-0.64 1,-0.96 0.38,-0.35 0.63,-0.64 1,-0.68 0.25,-0.03 0.5,-0 0.67,0.13zm-1.4 2.42l0 -0.05c-0.42,0.4 -0.91,0.82 -1.31,1.24 -0.06,0.05 -0.11,0.09 -0.17,0.12 -0.06,0.04 -0.13,0.07 -0.19,0.09 -0.07,0.03 -0.14,0.04 -0.22,0.05 -0.07,0.01 -0.14,0.01 -0.22,0 -0.47,-0.05 -0.96,-0.14 -1.43,-0.21l-0.29 0.1 0.31 1.18c0.08,0.31 0.13,0.47 0.07,0.69 -0.05,0.21 -0.17,0.34 -0.4,0.62l-0.86 1.04c0.45,-0.09 0.99,-0.23 1.45,-0.29 0.08,-0.01 0.15,-0.02 0.22,-0.01 0.08,0 0.16,0.01 0.23,0.03 0.09,0.02 0.16,0.06 0.23,0.1 0.41,0.3 0.77,0.84 1.1,1.24 0.19,-0.51 0.38,-1.02 0.59,-1.52 0.24,-0.57 0.39,-0.74 0.47,-0.84l0.03 -0.04c0.04,-0.04 0.07,-0.07 0.12,-0.11 0.05,-0.04 0.11,-0.07 0.18,-0.11 0.55,-0.26 1.13,-0.47 1.69,-0.71 -0.24,-0.11 -1.13,-0.46 -1.4,-0.7 -0.03,-0.03 -0.06,-0.05 -0.09,-0.09 -0.1,-0.13 -0.13,-0.23 -0.17,-0.38 -0.05,-0.45 0.03,-1.01 0.06,-1.45z"/>
   <g>
    <g>
     <path class="fil1" d="M6.66 16.14l20.95 0 0 21.17 -20.94 -0.01 -0 -21.17zm-1.66 22.16c0.18,0.92 1.43,0.67 2.43,0.67 2.58,0 20.76,0.1 21.27,-0.04 0.83,-0.22 0.58,-1.63 0.58,-2.53l0 -15.24c0,-7.22 0.69,-6.7 -2.45,-6.7l-15.24 0c-7.24,0 -6.62,-0.69 -6.62,2.53l0.02 21.3z"/>
     <path class="fil1" d="M19.81 27.72c-4.52,-1.45 -9.94,1.09 -10.87,6.05 -0.52,2.78 0.98,2.22 1.28,1.95 0.48,-0.46 0.06,-1.38 0.82,-3.07 2.19,-4.86 10.05,-4.87 12.2,0.07 0.78,1.79 0.26,2.66 0.9,3.09 0.52,0.35 1.12,0.04 1.25,-0.45 0.27,-0.99 -0.24,-2.62 -1.01,-3.97 -1.02,-1.79 -2.6,-3.03 -4.58,-3.66z"/>
     <path class="fil1" d="M16.39 18.85c1.72,-0.45 3.13,0.69 3.46,2 0.44,1.73 -0.76,3.12 -2.02,3.43 -3.66,0.91 -4.93,-4.51 -1.44,-5.43zm-0.05 -1.69c-2.17,0.43 -4.12,2.45 -3.63,5.16 0.72,4.02 5.83,4.92 8.02,1.92 2.44,-3.34 -0.48,-7.85 -4.39,-7.08z"/>
     <path class="fil1" d="M7.47 43.34c0.08,0.86 1.06,0.74 1.85,0.74l15.91 0c0.77,0 1.64,-0 1.57,-0.91 -0.07,-0.88 -1.02,-0.77 -1.85,-0.77l-15.91 -0c-0.8,-0 -1.66,0.02 -1.57,0.94z"/>
    </g>
    <path class="fil0" d="M3.82 47.4l26.67 0c0.61,0 1.16,-0.25 1.56,-0.65 0.4,-0.4 0.65,-0.95 0.65,-1.56l0 -32.24c0,-0.61 -0.25,-1.16 -0.65,-1.56 -0.4,-0.4 -0.95,-0.65 -1.56,-0.65l-7.47 0c0.01,-0.07 0.02,-0.15 0.02,-0.22l0 -1.1c0,-0.1 -0.01,-0.2 -0.03,-0.29l7.48 0c1.05,0 2.01,0.43 2.7,1.12 0.69,0.69 1.12,1.65 1.12,2.7l0 32.24c0,1.05 -0.43,2.01 -1.12,2.7 -0.69,0.69 -1.65,1.12 -2.7,1.12l-26.67 0c-1.05,0 -2.01,-0.43 -2.7,-1.12 -0.69,-0.69 -1.12,-1.65 -1.12,-2.7l0 -32.24c0,-1.05 0.43,-2.01 1.12,-2.7 0.69,-0.69 1.65,-1.12 2.7,-1.12l7.23 0c-0.02,0.09 -0.03,0.19 -0.03,0.29l0 1.1c0,0.08 0.01,0.15 0.02,0.22l-7.22 0c-0.61,0 -1.16,0.25 -1.56,0.65 -0.4,0.4 -0.65,0.95 -0.65,1.56l0 32.24c0,0.61 0.25,1.16 0.65,1.56 0.4,0.4 0.95,0.65 1.56,0.65z"/>
    <path class="fil0" d="M12.37 7.25l9.31 0c0.59,0 1.13,0.24 1.53,0.63 0.39,0.39 0.63,0.93 0.63,1.53l0 1.1c0,0.59 -0.24,1.13 -0.63,1.53 -0.39,0.39 -0.93,0.63 -1.53,0.63l-9.31 0c-0.59,0 -1.13,-0.24 -1.52,-0.63 -0.39,-0.39 -0.63,-0.93 -0.63,-1.53l0 -1.1c0,-0.59 0.24,-1.13 0.63,-1.53 0.39,-0.39 0.93,-0.63 1.52,-0.63zm9.31 1.61l-9.31 0c-0.15,0 -0.29,0.06 -0.39,0.16 -0.1,0.1 -0.16,0.24 -0.16,0.39l0 1.1c0,0.15 0.06,0.29 0.16,0.39 0.1,0.1 0.24,0.16 0.39,0.16l9.31 0c0.15,0 0.29,-0.06 0.39,-0.16 0.1,-0.1 0.16,-0.24 0.16,-0.39l0 -1.1c0,-0.15 -0.06,-0.29 -0.16,-0.39 -0.1,-0.1 -0.24,-0.16 -0.39,-0.16z"/>
    <path class="fil0" d="M13.19 0l8.48 0 0 8.73 -9.29 0 0 -8.73 0.81 0zm6.87 1.61l-6.07 0 0 5.51 6.07 0 0 -5.51z"/>
   </g>
  </g>
 </g>
</svg>
