<?xml version="1.0" encoding="UTF-8"?>
<!DOCTYPE svg PUBLIC "-//W3C//DTD SVG 1.1//EN" "http://www.w3.org/Graphics/SVG/1.1/DTD/svg11.dtd">
<!-- Creator: CorelDRAW 2020 (64 Bit) -->
<svg xmlns="http://www.w3.org/2000/svg" xml:space="preserve" width="5.8311mm" height="5.8355mm" version="1.1" style="shape-rendering:geometricPrecision; text-rendering:geometricPrecision; image-rendering:optimizeQuality; fill-rule:evenodd; clip-rule:evenodd"
viewBox="0 0 5.32 5.33"
 xmlns:xlink="http://www.w3.org/1999/xlink"
 xmlns:xodm="http://www.corel.com/coreldraw/odm/2003">
 <defs>
  <style type="text/css">
   <![CDATA[
    .fil0 {fill:white}
   ]]>
  </style>
 </defs>
 <g id="Camada_x0020_1">
  <metadata id="CorelCorpID_0Corel-Layer"/>
  <path class="fil0" d="M3.37 2.91c-0.11,0.1 -0.19,0.22 -0.29,0.31 -0.39,-0.05 -0.91,-0.54 -0.98,-0.84 0.22,-0.3 0.33,-0.15 -0.05,-0.95 -0.34,-0.03 -0.45,0.06 -0.56,0.31 -0.36,0.86 1.37,2.4 2.23,2.02 0.15,-0.07 0.45,-0.3 0.3,-0.56 -0.05,-0.09 -0.51,-0.28 -0.64,-0.29zm-2.7 1.77c1.13,-0.28 0.49,-0.34 1.24,-0.04 0.87,0.34 1.6,0.09 2.22,-0.37 1.15,-0.85 1.03,-3 -0.56,-3.66 -1.68,-0.7 -3.31,0.74 -3.03,2.36 0.08,0.43 0.19,0.52 0.33,0.84 0.09,0.2 -0.15,0.63 -0.21,0.87zm-0.67 0.65c0.36,-0.08 0.73,-0.22 1.08,-0.34 0.26,-0.09 0.29,-0.14 0.56,-0.01 1.57,0.72 3.56,-0.35 3.67,-2.22 0.15,-2.47 -3.01,-3.82 -4.71,-1.72 -0.41,0.51 -0.66,1.4 -0.44,2.22 0.05,0.18 0.12,0.36 0.19,0.51 0.13,0.25 0.09,0.2 -0.01,0.49 -0.11,0.34 -0.27,0.73 -0.35,1.07z"/>
 </g>
</svg>
