<?xml version="1.0" encoding="UTF-8"?>
<!DOCTYPE svg PUBLIC "-//W3C//DTD SVG 1.1//EN" "http://www.w3.org/Graphics/SVG/1.1/DTD/svg11.dtd">
<!-- Creator: CorelDRAW 2020 (64 Bit) -->
<svg xmlns="http://www.w3.org/2000/svg" xml:space="preserve" width="11.8534mm" height="11.8534mm" version="1.1" style="shape-rendering:geometricPrecision; text-rendering:geometricPrecision; image-rendering:optimizeQuality; fill-rule:evenodd; clip-rule:evenodd"
viewBox="0 0 54.56 54.56"
 xmlns:xlink="http://www.w3.org/1999/xlink"
 xmlns:xodm="http://www.corel.com/coreldraw/odm/2003">
 <defs>
  <style type="text/css">
   <![CDATA[
    .fil0 {fill:white}
   ]]>
  </style>
 </defs>
 <g id="Camada_x0020_1">
  <metadata id="CorelCorpID_0Corel-Layer"/>
  <path class="fil0" d="M8.04 46.54c2.57,-0.61 5.31,-1.61 7.83,-2.43 1.9,-0.62 2.13,-0.98 4.06,-0.1 11.38,5.23 25.74,-2.52 26.55,-16.05 1.07,-17.84 -21.79,-27.62 -34.03,-12.44 -2.95,3.66 -4.75,10.14 -3.21,16.06 0.34,1.3 0.83,2.57 1.41,3.7 0.92,1.81 0.62,1.44 -0.08,3.54 -0.82,2.47 -1.95,5.26 -2.54,7.71zm4.82 -4.71c8.2,-2.01 3.52,-2.43 8.96,-0.32 6.32,2.45 11.55,0.66 16.08,-2.67 8.35,-6.13 7.43,-21.68 -4.04,-26.46 -12.12,-5.05 -23.96,5.37 -21.92,17.07 0.54,3.13 1.38,3.77 2.42,6.05 0.65,1.43 -1.11,4.56 -1.49,6.32zm19.53 -12.78c-0.76,0.71 -1.38,1.59 -2.1,2.27 -2.81,-0.34 -6.61,-3.91 -7.12,-6.09 1.58,-2.2 2.4,-1.05 -0.37,-6.87 -2.49,-0.23 -3.28,0.4 -4.07,2.25 -2.64,6.22 9.87,17.36 16.11,14.62 1.09,-0.48 3.24,-2.16 2.15,-4.06 -0.39,-0.68 -3.68,-1.99 -4.6,-2.11zm-25.84 -29.05l41.47 0c3.6,0 6.55,2.95 6.55,6.55l0 41.47c0,3.6 -2.95,6.55 -6.55,6.55l-41.47 0c-3.6,0 -6.55,-2.95 -6.55,-6.55l0 -41.47c0,-3.6 2.95,-6.55 6.55,-6.55z"/>
 </g>
</svg>
