<?xml version="1.0" encoding="UTF-8"?>
<!DOCTYPE svg PUBLIC "-//W3C//DTD SVG 1.1//EN" "http://www.w3.org/Graphics/SVG/1.1/DTD/svg11.dtd">
<!-- Creator: CorelDRAW 2020 (64 Bit) -->
<svg xmlns="http://www.w3.org/2000/svg" xml:space="preserve" width="11.8534mm" height="11.8534mm" version="1.1" style="shape-rendering:geometricPrecision; text-rendering:geometricPrecision; image-rendering:optimizeQuality; fill-rule:evenodd; clip-rule:evenodd"
viewBox="0 0 62.71 62.71"
 xmlns:xlink="http://www.w3.org/1999/xlink"
 xmlns:xodm="http://www.corel.com/coreldraw/odm/2003">
 <defs>
  <style type="text/css">
   <![CDATA[
    .fil0 {fill:white}
   ]]>
  </style>
 </defs>
 <g id="Camada_x0020_1">
  <metadata id="CorelCorpID_0Corel-Layer"/>
  <path class="fil0" d="M23.25 15.38c-7.58,0.16 -12.48,-0.67 -13.92,5.5 -1.2,5.15 -1.11,12.85 -0.49,18.21 0.91,7.79 3.51,7.76 11.09,8.09 6.55,0.28 13.11,0.33 19.66,0.1 7.11,-0.24 12.52,0.46 13.81,-5.43 1.13,-5.18 1.12,-13.06 0.44,-18.51 -0.97,-7.73 -3.49,-7.59 -11.3,-7.88 -6.42,-0.24 -12.88,-0.22 -19.29,-0.08zm2.46 22.72c3.46,-1.38 8.47,-4.42 12.22,-6.21l1.72 -1.2 -13.82 -7.14 -0.12 14.55zm-18.18 -38.1l47.66 0c4.14,0 7.52,3.39 7.52,7.52l0 47.66c0,4.14 -3.39,7.52 -7.52,7.52l-47.66 0c-4.14,0 -7.52,-3.39 -7.52,-7.52l0 -47.66c0,-4.14 3.39,-7.52 7.52,-7.52z"/>
 </g>
</svg>
